<?xml version="1.0" encoding="UTF-8" standalone="no"?>
<!-- Created with Inkscape (http://www.inkscape.org/) -->

<svg
   width="113.4839"
   height="147.57565"
   viewBox="0 0 30.02595 39.046058"
   version="1.1"
   id="svg25595"
   xml:space="preserve"
   inkscape:version="1.2.2 (732a01da63, 2022-12-09)"
   sodipodi:docname="terminal.svg"
   inkscape:export-filename="..\terminal\img\backgroud.png"
   inkscape:export-xdpi="500"
   inkscape:export-ydpi="500"
   xmlns:inkscape="http://www.inkscape.org/namespaces/inkscape"
   xmlns:sodipodi="http://sodipodi.sourceforge.net/DTD/sodipodi-0.dtd"
   xmlns="http://www.w3.org/2000/svg"
   xmlns:svg="http://www.w3.org/2000/svg"><sodipodi:namedview
     id="namedview25597"
     pagecolor="#505050"
     bordercolor="#eeeeee"
     borderopacity="1"
     inkscape:showpageshadow="0"
     inkscape:pageopacity="0"
     inkscape:pagecheckerboard="0"
     inkscape:deskcolor="#505050"
     inkscape:document-units="mm"
     showgrid="false"
     inkscape:zoom="0.43295455"
     inkscape:cx="817.63778"
     inkscape:cy="388.03149"
     inkscape:window-width="1366"
     inkscape:window-height="705"
     inkscape:window-x="1358"
     inkscape:window-y="-8"
     inkscape:window-maximized="1"
     inkscape:current-layer="svg25595" /><defs
     id="defs25592"><linearGradient
       id="linearGradient16100"
       inkscape:swatch="solid"><stop
         style="stop-color:#152c59;stop-opacity:1;"
         offset="0"
         id="stop16098" /></linearGradient><linearGradient
       id="linearGradient7698"
       inkscape:swatch="gradient"><stop
         style="stop-color:#ffffff;stop-opacity:1;"
         offset="0"
         id="stop7694" /><stop
         style="stop-color:#ffffff;stop-opacity:0;"
         offset="1"
         id="stop7696" /></linearGradient></defs><path
     style="fill:#152c59;fill-opacity:0.980392;stroke-width:0.0411893"
     d="m 27.684831,38.984148 c -0.0762,-0.03314 -0.180529,-0.06014 -0.23179,-0.06014 -0.05125,0 -0.116274,-0.02777 -0.144481,-0.06176 -0.02819,-0.03392 -0.0791,-0.06176 -0.113044,-0.06176 -0.0756,0 -0.545982,-0.476347 -0.545982,-0.55285 0,-0.03015 -0.02784,-0.078 -0.06176,-0.106181 -0.034,-0.02819 -0.06176,-0.09627 -0.06176,-0.151246 0,-0.05501 -0.02698,-0.152099 -0.05988,-0.215822 -0.06372,-0.12317 -0.101811,-1.103078 -0.04639,-1.192744 0.01896,-0.03084 0.210058,-0.04655 0.562836,-0.04655 h 0.53405 l 0.04015,0.105651 c 0.02204,0.05817 0.04015,0.207454 0.04015,0.331869 0,0.274087 0.07149,0.586795 0.156628,0.685191 0.100022,0.115583 0.295504,0.195348 0.478756,0.195348 0.406644,0 0.62532,-0.429691 0.504305,-0.990971 -0.03204,-0.148599 -0.0838,-0.315415 -0.114985,-0.370717 -0.140721,-0.249317 -0.478628,-0.631428 -0.942084,-1.065339 -0.975563,-0.913358 -1.24398,-1.421626 -1.252427,-2.371544 -0.006,-0.67366 0.152989,-1.14695 0.504245,-1.501154 0.197622,-0.199277 0.48664,-0.372963 0.620614,-0.372963 0.04186,0 0.142618,-0.02777 0.223947,-0.06176 0.08721,-0.03648 0.275669,-0.06176 0.459443,-0.06176 0.183764,0 0.37222,0.02528 0.459434,0.06176 0.08132,0.034 0.18274,0.06176 0.225365,0.06176 0.08268,0 0.251188,0.08414 0.495977,0.247634 0.235188,0.157114 0.465754,0.539054 0.571582,0.946869 0.05578,0.215012 0.04886,0.839067 -0.01004,0.897922 -0.03323,0.03323 -0.22053,0.04938 -0.572241,0.04938 -0.602684,0 -0.572821,0.0217 -0.572821,-0.415254 0,-0.158823 -0.01786,-0.284955 -0.0404,-0.284955 -0.02222,0 -0.05219,-0.04706 -0.06663,-0.104636 -0.03084,-0.122954 -0.281299,-0.266075 -0.465594,-0.266075 -0.344756,0 -0.613797,0.391054 -0.563502,0.819045 0.01461,0.124219 0.04195,0.245618 0.06082,0.269758 0.01888,0.02418 0.0468,0.09641 0.06219,0.160598 0.05432,0.227108 0.250596,0.467592 0.930023,1.139588 0.613789,0.607074 0.989323,1.04276 0.989323,1.147837 0,0.02008 0.02784,0.05962 0.06176,0.08784 0.034,0.02819 0.06194,0.0814 0.06201,0.118316 1.21e-4,0.03689 0.03125,0.122646 0.06919,0.190607 0.05399,0.09677 0.07269,0.267024 0.08619,0.785159 0.01026,0.392269 -1.63e-4,0.719223 -0.02554,0.803183 -0.08853,0.293146 -0.164151,0.468736 -0.208194,0.483411 -0.02503,0.0086 -0.04552,0.04109 -0.04552,0.07295 0,0.08675 -0.338965,0.397112 -0.542121,0.49637 -0.341109,0.166673 -0.587957,0.221666 -0.98741,0.220002 -0.244276,-8.56e-4 -0.436608,-0.02366 -0.524369,-0.06176 z M 4.777973,38.935708 c -0.09961,-0.03895 -0.115446,-0.09323 -0.07372,-0.252834 0.02161,-0.08268 0.06364,-0.326351 0.09332,-0.541567 0.02972,-0.215226 0.07406,-0.465438 0.09862,-0.556061 0.02452,-0.09062 0.04579,-0.257441 0.04732,-0.370708 0.0018,-0.113276 0.02956,-0.280085 0.06219,-0.370708 0.03262,-0.09061 0.05963,-0.259935 0.05997,-0.376268 3.07e-4,-0.116334 0.02691,-0.301679 0.05893,-0.41189 0.03212,-0.11022 0.07825,-0.357937 0.102594,-0.550492 0.05099,-0.403227 0.111594,-0.788038 0.175163,-1.112115 0.02444,-0.124603 0.05877,-0.368546 0.07637,-0.54212 0.01751,-0.173575 0.05073,-0.377457 0.07381,-0.453088 0.02307,-0.0756 0.05356,-0.264384 0.06774,-0.419474 0.01418,-0.155081 0.05287,-0.386032 0.08602,-0.513223 0.03314,-0.127183 0.06023,-0.318823 0.06023,-0.425864 0,-0.107042 0.02152,-0.246797 0.04792,-0.310563 0.0264,-0.06372 0.05877,-0.208632 0.0721,-0.321898 l 0.02418,-0.205949 h 0.902023 0.902023 l 0.05801,0.164759 c 0.03195,0.09061 0.0767,0.329056 0.09962,0.529863 0.02289,0.200806 0.05979,0.412751 0.08192,0.471 0.02213,0.05826 0.05125,0.255382 0.06466,0.438087 0.01341,0.182706 0.04246,0.367351 0.06457,0.410317 0.02213,0.04288 0.05561,0.237572 0.07448,0.432484 0.01888,0.194904 0.05296,0.42852 0.07585,0.519135 0.0229,0.09061 0.06167,0.303764 0.08615,0.473673 0.135742,0.941872 0.162103,1.105897 0.201883,1.256279 0.024,0.09061 0.04408,0.259789 0.04459,0.37597 3.75e-4,0.116163 0.02878,0.277744 0.06278,0.359081 0.034,0.08132 0.06219,0.236513 0.06277,0.344852 3.75e-4,0.108322 0.02033,0.271107 0.04391,0.361722 0.02357,0.09061 0.0691,0.350112 0.101094,0.576655 0.03204,0.226544 0.08097,0.529787 0.108874,0.673882 0.04698,0.242732 0.04493,0.266213 -0.02759,0.319218 -0.09315,0.06817 -0.982413,0.08132 -1.151349,0.01716 -0.0929,-0.03527 -0.105729,-0.0639 -0.106269,-0.236837 -3.17e-4,-0.108168 -0.02734,-0.270818 -0.05997,-0.361432 -0.03262,-0.09062 -0.06039,-0.257431 -0.06176,-0.370708 -0.0052,-0.416971 0.04374,-0.391294 -0.739664,-0.391294 H 6.111698 l -0.06672,0.236837 c -0.03673,0.130259 -0.07585,0.381028 -0.08709,0.557258 -0.01316,0.207913 -0.04749,0.367026 -0.09774,0.453095 l -0.0774,0.13265 -0.471461,0.0077 c -0.259302,0.0043 -0.499256,-0.0034 -0.533237,-0.01649 z M 7.25649,36.102431 C 7.24879,35.943848 7.21668,35.73468 7.18439,35.637607 7.15218,35.540527 7.1258,35.355062 7.1258,35.225437 7.1258,35.09582 7.1059,34.925021 7.08147,34.845879 7.05712,34.766689 7.01134,34.507367 6.979715,34.269496 6.948105,34.031626 6.903935,33.753599 6.881645,33.651659 6.859265,33.549715 6.838765,33.355095 6.835855,33.219166 l -0.0052,-0.24713 -0.06697,0.144164 c -0.03681,0.07927 -0.08879,0.32951 -0.115463,0.556062 -0.02665,0.226534 -0.0685,0.532357 -0.09296,0.679614 -0.02443,0.147248 -0.0644,0.388211 -0.08883,0.535458 -0.02444,0.147256 -0.06185,0.43983 -0.0832,0.650169 -0.02135,0.210339 -0.05765,0.417639 -0.08063,0.460673 -0.02305,0.04296 -0.04186,0.154166 -0.04186,0.246977 v 0.168739 l 0.50457,-0.01162 0.504569,-0.01161 z m 2.30953,2.820107 -0.09289,-0.03732 0.01048,-3.842162 0.01048,-3.842161 0.747994,-0.01119 0.748,-0.01119 0.0861,0.109448 c 0.05032,0.06398 0.08664,0.171337 0.08741,0.258347 7.27e-4,0.08192 0.02853,0.184883 0.06176,0.228858 0.03323,0.04399 0.06048,0.128029 0.06048,0.186788 0,0.05868 0.03707,0.212287 0.08234,0.341196 0.04527,0.128917 0.08234,0.26981 0.08234,0.313091 0,0.04331 0.02768,0.131788 0.06151,0.196673 0.03383,0.06492 0.06227,0.182851 0.06313,0.262147 7.25e-4,0.07927 0.02878,0.180134 0.06201,0.224108 0.03323,0.04399 0.06056,0.136656 0.06073,0.205949 1.19e-4,0.06927 0.02673,0.176864 0.0592,0.239049 0.03246,0.0621 0.07192,0.199286 0.08771,0.304678 0.0158,0.105387 0.0539,0.23987 0.08465,0.298835 0.03075,0.05893 0.05604,0.159411 0.05621,0.223204 1.28e-4,0.06381 0.02256,0.156456 0.04981,0.20594 0.02725,0.04954 0.05971,0.169346 0.0721,0.266359 0.01238,0.09703 0.041,0.175803 0.06363,0.175069 0.02674,-6.07e-4 0.04493,-0.691394 0.05185,-1.964398 0.0077,-1.366028 0.02469,-1.979859 0.05654,-2.018289 0.06124,-0.07372 0.98424,-0.07876 1.05724,-0.006 0.03776,0.03776 0.04945,0.948869 0.04945,3.849764 0,3.715115 -0.0018,3.801287 -0.07971,3.842965 -0.0866,0.0463 -0.900845,0.05868 -1.110209,0.01683 -0.09654,-0.0193 -0.134965,-0.05313 -0.151828,-0.133862 -0.01238,-0.05936 -0.04929,-0.168885 -0.08183,-0.243278 -0.03255,-0.0744 -0.05997,-0.18561 -0.06073,-0.247138 -7.35e-4,-0.06159 -0.02793,-0.158199 -0.06031,-0.21485 -0.03238,-0.05664 -0.05954,-0.145147 -0.06031,-0.196673 -7.34e-4,-0.05151 -0.03852,-0.199174 -0.0838,-0.32809 -0.04527,-0.128909 -0.08234,-0.274611 -0.08234,-0.323779 0,-0.0492 -0.02768,-0.142489 -0.06151,-0.207375 -0.03383,-0.06492 -0.06167,-0.169866 -0.06176,-0.2333 -1.2e-4,-0.06347 -0.02563,-0.165357 -0.05672,-0.226535 -0.031,-0.06116 -0.06919,-0.198833 -0.08474,-0.305908 -0.01555,-0.107086 -0.04467,-0.204821 -0.06475,-0.217207 -0.01999,-0.01238 -0.04835,-0.110132 -0.06286,-0.217207 -0.01461,-0.107086 -0.0527,-0.253101 -0.08474,-0.324486 -0.03204,-0.07142 -0.05835,-0.178879 -0.05835,-0.238878 0,-0.06005 -0.02545,-0.15914 -0.05646,-0.220326 -0.031,-0.06116 -0.06919,-0.198833 -0.08474,-0.305908 -0.01563,-0.107075 -0.04408,-0.204411 -0.06329,-0.216284 -0.01921,-0.01188 -0.04801,-0.118898 -0.06398,-0.237803 -0.01597,-0.118913 -0.04792,-0.239485 -0.0709,-0.267938 -0.02305,-0.02845 -0.05612,-0.111867 -0.07355,-0.185355 -0.01743,-0.07346 -0.03366,1.028822 -0.03597,2.44957 -0.0043,2.5095 -0.0068,2.584405 -0.08389,2.625825 -0.09704,0.05194 -0.851976,0.05203 -0.981165,0 z m 4.690336,-0.0135 c -0.03392,-0.04082 -0.04365,-1.089299 -0.03597,-3.882113 l 0.01048,-3.826136 1.166314,-0.01093 c 0.943154,-0.0088 1.191402,3.16e-4 1.297461,0.04819 0.0721,0.03255 0.177494,0.07261 0.234129,0.08904 0.215805,0.06261 0.659035,0.471077 0.659035,0.607314 0,0.03451 0.02136,0.06988 0.04749,0.0785 0.06654,0.02222 0.156841,0.36073 0.20635,0.773644 0.06313,0.526413 0.02101,1.886418 -0.06347,2.04975 -0.03673,0.07106 -0.06679,0.177033 -0.06679,0.235513 0,0.05851 -0.02615,0.116326 -0.05809,0.128583 -0.03195,0.01222 -0.06876,0.06483 -0.08183,0.116864 -0.02673,0.106346 -0.329185,0.424812 -0.456538,0.480634 -0.04579,0.02008 -0.111022,0.05261 -0.144993,0.07227 -0.187181,0.108443 -0.39659,0.147393 -0.863764,0.160693 -0.282501,0.0077 -0.537354,0.03426 -0.566354,0.05834 -0.04091,0.03391 -0.0527,0.350677 -0.0527,1.411932 v 1.368187 l -0.104912,0.04784 c -0.154833,0.07056 -1.066098,0.06398 -1.125936,-0.0086 z m 2.141867,-4.181707 0.159907,-0.159916 v -0.952807 -0.952804 l -0.133862,-0.14535 c -0.122869,-0.133452 -0.158028,-0.147392 -0.427982,-0.16974 -0.16176,-0.01341 -0.342485,-0.01222 -0.401596,0.0034 l -0.107484,0.02698 v 1.228038 c 0,0.675411 0.01239,1.240391 0.0275,1.255485 0.01512,0.01503 0.184107,0.02741 0.375551,0.02741 h 0.348088 z m 5.487855,4.19675 c -0.132358,-0.05338 -0.147102,-0.104912 -0.07765,-0.271218 0.03468,-0.08303 0.06313,-0.257826 0.06313,-0.388391 0,-0.130557 0.0264,-0.327544 0.05868,-0.437763 0.03229,-0.110199 0.07791,-0.348651 0.101292,-0.529879 0.101745,-0.786937 0.136032,-1.000685 0.192246,-1.198117 0.0328,-0.115266 0.06048,-0.309879 0.06151,-0.432491 7.28e-4,-0.122605 0.02853,-0.29706 0.06116,-0.387673 0.03262,-0.09062 0.06047,-0.248172 0.06176,-0.350114 0.0018,-0.101943 0.02076,-0.268758 0.04322,-0.370707 0.02238,-0.101943 0.0598,-0.333636 0.08303,-0.514872 0.02323,-0.181228 0.06893,-0.423813 0.101579,-0.53908 0.03263,-0.115258 0.05936,-0.304591 0.05936,-0.420747 0,-0.116155 0.02579,-0.290609 0.05731,-0.387681 0.03152,-0.09708 0.06757,-0.311315 0.08005,-0.476091 0.01256,-0.164776 0.04151,-0.359398 0.06449,-0.432483 0.02298,-0.07312 0.05647,-0.234838 0.07441,-0.35945 l 0.03263,-0.226535 0.894984,-0.01119 0.894984,-0.01119 0.06587,0.155261 c 0.03622,0.08542 0.07569,0.294273 0.08768,0.464183 0.01204,0.169918 0.04767,0.388348 0.07927,0.48542 0.03152,0.09708 0.0574,0.265161 0.0574,0.373526 0,0.108366 0.02649,0.288439 0.05877,0.400152 0.03238,0.111722 0.07149,0.332875 0.08697,0.49145 0.01546,0.158583 0.0539,0.389534 0.08533,0.513231 0.03143,0.123689 0.05723,0.320677 0.05723,0.437754 0,0.117069 0.02784,0.279394 0.06176,0.360722 0.034,0.08132 0.06176,0.249206 0.06176,0.373058 0,0.12386 0.02051,0.277352 0.04552,0.341134 0.02502,0.06372 0.06988,0.301305 0.09965,0.527848 0.02981,0.226543 0.07338,0.495301 0.09684,0.597243 0.02348,0.101944 0.04383,0.268767 0.04509,0.370698 0.0018,0.101954 0.02913,0.259491 0.06176,0.350114 0.03263,0.09062 0.06014,0.258704 0.06116,0.373527 7.34e-4,0.114821 0.02768,0.300166 0.05928,0.411888 0.03161,0.11173 0.06774,0.30004 0.0803,0.418476 0.03426,0.323257 0.0018,0.341322 -0.604127,0.337811 -0.275891,-8.54e-4 -0.538611,-0.01734 -0.583815,-0.03502 -0.06578,-0.02572 -0.09199,-0.09705 -0.131181,-0.357502 -0.02691,-0.17899 -0.07268,-0.478354 -0.1017,-0.665245 l -0.05271,-0.339811 h -0.69059 -0.690599 l -0.02281,0.113268 c -0.01256,0.06227 -0.03972,0.168875 -0.06047,0.236836 -0.02067,0.068 -0.05073,0.289448 -0.06671,0.492177 -0.04134,0.52513 -0.08047,0.558999 -0.64261,0.555549 -0.233231,-8.55e-4 -0.463867,-0.01863 -0.512522,-0.03827 z m 2.461579,-2.780564 c -0.006,-0.135931 -0.02921,-0.330543 -0.05108,-0.432484 -0.02187,-0.101954 -0.0585,-0.352172 -0.08133,-0.556062 -0.02289,-0.203891 -0.06116,-0.433381 -0.08508,-0.509995 -0.02391,-0.07661 -0.05826,-0.299032 -0.07636,-0.494267 -0.01802,-0.195238 -0.05304,-0.419741 -0.07774,-0.498883 -0.02469,-0.0791 -0.04493,-0.23822 -0.04493,-0.353538 0,-0.115309 -0.01323,-0.222913 -0.02947,-0.239125 -0.04552,-0.04553 -0.176137,0.465114 -0.176317,0.68948 -7.6e-5,0.110033 -0.02725,0.323179 -0.06039,0.473673 -0.03314,0.150494 -0.08012,0.431177 -0.104327,0.62374 -0.112848,0.896574 -0.158394,1.194058 -0.203967,1.332149 -0.02707,0.08201 -0.03716,0.168509 -0.02247,0.19229 0.01691,0.02734 0.209458,0.03904 0.52584,0.03169 l 0.49912,-0.01153 z M 0.54369797,38.87438 c -0.071671,-0.07167 -0.071671,-7.573087 0,-7.644746 0.07697,-0.07697 2.44518603,-0.06902 2.59421903,0.0087 0.06073,0.03169 0.167347,0.07014 0.236836,0.08542 0.06945,0.01528 0.126346,0.04356 0.126346,0.06286 0,0.01939 0.03246,0.04561 0.0721,0.05843 0.213244,0.06884 0.627301,0.632145 0.628762,0.855426 3.08e-4,0.05219 0.02734,0.168952 0.05997,0.259566 0.08655,0.240237 0.09146,4.749438 0.0052,5.013371 -0.03161,0.09708 -0.06953,0.246002 -0.08422,0.330953 -0.0147,0.0849 -0.04246,0.154466 -0.06159,0.154466 -0.01913,0 -0.04579,0.04168 -0.05911,0.09267 -0.03878,0.148469 -0.331005,0.455651 -0.52602,0.552978 -0.4536,0.226415 -0.398299,0.219325 -1.711801,0.219325 -0.90292803,0 -1.24470403,-0.01316 -1.28094003,-0.04945 z m 2.32260803,-1.289225 0.139295,-0.16476 7.35e-4,-2.33894 c 7.26e-4,-2.539396 0.01196,-2.40439 -0.219745,-2.638117 -0.112824,-0.113823 -0.842776,-0.152928 -0.945074,-0.05065 -0.06475,0.06475 -0.07022,0.276523 -0.07022,2.699987 0,2.064288 0.0111,2.634606 0.05151,2.652339 0.02828,0.01247 0.243388,0.01854 0.477928,0.01375 l 0.426452,-0.0088 z m 15.481947,1.287175 c -0.01082,-0.02827 -0.01487,-1.765999 -0.0089,-3.861509 l 0.01059,-3.810027 0.591622,-0.01144 c 0.401186,-0.0077 0.610014,0.0034 0.648734,0.03597 0.04784,0.03963 0.05706,0.576972 0.05706,3.296317 v 3.248924 h 0.92038 c 1.129147,0 1.056711,-0.04125 1.056711,0.602547 0,0.296555 -0.017,0.468881 -0.04945,0.501324 -0.07295,0.07295 -3.198903,0.07099 -3.226741,-0.0025 z M 8.790155,27.966189 c -0.02152,-0.181971 -0.02511,-0.356093 -0.0077,-0.386929 0.05356,-0.09578 0.366787,-0.234966 0.62076,-0.275866 0.133478,-0.02152 0.282706,-0.06517 0.331619,-0.0969 0.04895,-0.03186 0.190104,-0.07108 0.31375,-0.08733 0.123636,-0.01624 0.281195,-0.06151 0.350104,-0.100652 0.06893,-0.03912 0.208706,-0.08355 0.310657,-0.09861 0.101943,-0.01512 0.224151,-0.05288 0.271569,-0.08389 0.04741,-0.03091 0.190641,-0.07576 0.318259,-0.09931 0.127627,-0.02357 0.274183,-0.07047 0.325683,-0.104183 0.05151,-0.03374 0.177034,-0.07398 0.278974,-0.08943 0.101954,-0.01546 0.214577,-0.05338 0.250283,-0.0844 0.0357,-0.03091 0.150996,-0.07234 0.256192,-0.09194 0.105199,-0.01964 0.235462,-0.06466 0.289464,-0.100078 0.05399,-0.03536 0.169347,-0.07765 0.256314,-0.09398 0.08697,-0.01632 0.214789,-0.06194 0.284049,-0.101414 0.06927,-0.03947 0.195253,-0.08389 0.279973,-0.0987 l 0.154057,-0.02698 -0.124578,-0.121776 c -0.06876,-0.06722 -0.169354,-0.121774 -0.224528,-0.121774 -0.05501,0 -0.133111,-0.03443 -0.173634,-0.07661 -0.04049,-0.04211 -0.121245,-0.08794 -0.179366,-0.101843 -0.0581,-0.01393 -0.148999,-0.06286 -0.201951,-0.108786 -0.05296,-0.04595 -0.130514,-0.08355 -0.172353,-0.08355 -0.04186,0 -0.111005,-0.03493 -0.153688,-0.07765 -0.04271,-0.04271 -0.144369,-0.09965 -0.225971,-0.126576 -0.08158,-0.02691 -0.159148,-0.06645 -0.172336,-0.08776 -0.01323,-0.02136 -0.08294,-0.06731 -0.15504,-0.102186 -0.218966,-0.105883 -0.400766,-0.212758 -0.473698,-0.278472 -0.103046,-0.09285 -0.273559,-0.124987 -0.324547,-0.06116 -0.02383,0.02972 -0.06372,0.173002 -0.08874,0.318278 -0.02716,0.15772 -0.07901,0.29985 -0.128754,0.352769 -0.04579,0.04877 -0.08346,0.10596 -0.08371,0.127157 -3.75e-4,0.04545 -0.261942,0.306267 -0.306908,0.306267 -0.01691,0 -0.08593,0.0463 -0.153244,0.102969 -0.06731,0.05663 -0.16803,0.102981 -0.223836,0.102981 -0.05578,0 -0.174112,0.03707 -0.262924,0.08234 -0.229046,0.116856 -1.083225,0.119145 -1.431168,0.0034 -0.130352,-0.04313 -0.325793,-0.08928 -0.434313,-0.102418 -0.108532,-0.01307 -0.238271,-0.04664 -0.288328,-0.07448 -0.05006,-0.02784 -0.174428,-0.0791 -0.27637,-0.113831 -0.165262,-0.05638 -0.186788,-0.07825 -0.198636,-0.202191 -0.01119,-0.116939 0.01298,-0.164255 0.152868,-0.298621 0.09138,-0.08781 0.184355,-0.159659 0.206598,-0.159659 0.02222,0 0.06466,-0.03297 0.09427,-0.07338 0.06808,-0.09276 0.441223,-0.338557 0.513967,-0.338557 0.03007,0 0.05475,-0.01921 0.05475,-0.04262 0,-0.02341 0.08132,-0.07756 0.180818,-0.120161 0.09945,-0.04271 0.192333,-0.09615 0.206419,-0.11894 0.01409,-0.02281 0.08563,-0.05416 0.158992,-0.06979 0.07338,-0.01555 0.162394,-0.05381 0.197835,-0.08499 0.07133,-0.0627 0.543061,-0.173182 0.920876,-0.215662 0.259063,-0.02904 0.347661,-0.10958 0.169833,-0.154209 -0.05886,-0.01478 -0.125688,-0.06176 -0.148547,-0.104492 -0.02281,-0.04271 -0.06612,-0.07765 -0.09622,-0.07765 -0.04853,0 -0.156986,-0.07457 -0.465098,-0.319584 C 9.313272,23.28291 9.205447,23.20432 9.123221,23.147696 9.040961,23.091066 8.921543,23.003173 8.857768,22.952398 l -0.11595,-0.09232 -0.01802,0.257074 c -0.01999,0.284483 -0.114044,0.469111 -0.368956,0.724023 -0.223725,0.223716 -0.425906,0.33332 -0.708468,0.384051 -0.509687,0.09151 -1.408474,0.02101 -1.652084,-0.129507 -0.07389,-0.0457 -0.174762,-0.08303 -0.224101,-0.08303 -0.04938,0 -0.176743,-0.0463 -0.283134,-0.102969 -0.106391,-0.05663 -0.213875,-0.102981 -0.238861,-0.102981 -0.02502,0 -0.07748,-0.03536 -0.116633,-0.07867 -0.03912,-0.04331 -0.11589,-0.08988 -0.170516,-0.103609 -0.167733,-0.04212 -0.195862,-0.373245 -0.03878,-0.45665 0.04527,-0.02409 0.147256,-0.08465 0.226544,-0.134733 0.07927,-0.05006 0.17506,-0.09107 0.212816,-0.09116 0.03776,-7.8e-5 0.07508,-0.0193 0.08285,-0.0428 0.0077,-0.02341 0.09741,-0.07124 0.19908,-0.10617 0.10169,-0.03493 0.215012,-0.0907 0.251846,-0.123884 0.03682,-0.03314 0.138783,-0.07133 0.226544,-0.08474 0.08776,-0.0135 0.189343,-0.05015 0.225732,-0.08167 0.163546,-0.141491 1.137681,-0.238391 1.506416,-0.149836 0.256465,0.06159 0.287311,0.0068 0.08597,-0.153962 -0.318516,-0.253631 -1.164195,-1.079698 -1.199491,-1.171695 -0.01315,-0.03435 -0.06167,-0.06252 -0.10766,-0.06252 -0.05621,0 -0.08371,-0.02707 -0.08371,-0.08234 0,-0.04536 -0.01854,-0.08234 -0.04116,-0.08234 -0.05116,0 -0.0539,0.09354 -0.0043,0.146224 0.07637,0.08115 0.09268,0.291821 0.02683,0.346524 -0.03502,0.02904 -0.06364,0.07628 -0.06364,0.105001 0,0.08675 -0.445194,0.510925 -0.566482,0.539737 -0.06219,0.01478 -0.147564,0.0568 -0.189634,0.09343 -0.111389,0.09691 -1.034655,0.09666 -1.18257,-3.15e-4 -0.05612,-0.03682 -0.17981,-0.08005 -0.274926,-0.09609 -0.09512,-0.01606 -0.218122,-0.06475 -0.273328,-0.10819 -0.05518,-0.04347 -0.126405,-0.07892 -0.158206,-0.07892 -0.03177,0 -0.09374,-0.03314 -0.137665,-0.07364 -0.0439,-0.04049 -0.138757,-0.09779 -0.210757,-0.127335 -0.07201,-0.02956 -0.14092,-0.07987 -0.153168,-0.111756 -0.01222,-0.03186 -0.04348,-0.05801 -0.06945,-0.05801 -0.04715,0 -0.506689,-0.372245 -0.604128,-0.489339 -0.123355,-0.14824 -0.0025,-0.375645 0.1995,-0.375645 0.05518,0 0.169098,-0.03682 0.253143,-0.08192 0.08405,-0.04502 0.259849,-0.09364 0.390688,-0.108013 0.130838,-0.01443 0.343886,-0.0609 0.473426,-0.103455 0.350633,-0.115121 1.476202,-0.11325 1.666476,0.0034 0.07201,0.04391 0.196459,0.0921 0.276627,0.107141 0.09438,0.01768 0.154952,0.05638 0.171847,0.109547 0.0182,0.0574 0.03912,0.06911 0.06928,0.03904 0.05031,-0.05039 -0.0089,-0.153142 -0.221316,-0.38376 -0.07645,-0.08303 -0.172088,-0.194238 -0.212509,-0.247139 -0.0404,-0.05288 -0.128472,-0.168235 -0.195647,-0.256304 -0.06714,-0.08807 -0.122151,-0.18092 -0.122151,-0.206332 0,-0.02545 -0.03707,-0.06936 -0.08234,-0.09767 -0.04527,-0.02828 -0.08234,-0.07176 -0.08234,-0.09662 0,-0.02485 -0.0463,-0.100265 -0.10297,-0.167569 -0.05664,-0.06731 -0.102969,-0.145889 -0.102969,-0.174616 0,-0.02878 -0.03707,-0.08579 -0.08234,-0.126798 -0.04527,-0.041 -0.08234,-0.09587 -0.08234,-0.121938 0,-0.02606 -0.04639,-0.11022 -0.102969,-0.186976 -0.05663,-0.07679 -0.102981,-0.173627 -0.102981,-0.215244 0,-0.04168 -0.02691,-0.08599 -0.05979,-0.09862 -0.03289,-0.01265 -0.08192,-0.09081 -0.108962,-0.173762 -0.02707,-0.08294 -0.08355,-0.195023 -0.12556,-0.249043 -0.04203,-0.05399 -0.07637,-0.1303 -0.07637,-0.1695 0,-0.0392 -0.03468,-0.115471 -0.07696,-0.1695 -0.04237,-0.05399 -0.0911,-0.163109 -0.108333,-0.242397 C 4.081508,17.014318 4.032818,16.905219 3.990414,16.851191 3.948044,16.797201 3.912854,16.70449 3.912084,16.64525 3.911356,16.58597 3.865194,16.444854 3.80949,16.331587 3.7538,16.218319 3.70801,16.073934 3.7078,16.010722 3.707647,15.947592 3.67287,15.827051 3.63058,15.742997 3.58838,15.658947 3.54122,15.475628 3.525889,15.335622 c -0.01529,-0.14 -0.05578,-0.310515 -0.08992,-0.37892 -0.03451,-0.06921 -0.07944,-0.338067 -0.101314,-0.60627 -0.02161,-0.265044 -0.06244,-0.557914 -0.0907,-0.650817 -0.07167,-0.235499 -0.07064,-2.202659 0.0018,-2.441658 0.02845,-0.09465 0.06868,-0.394219 0.08926,-0.665707 0.02109,-0.277358 0.06372,-0.544823 0.0974,-0.6105042 0.03297,-0.0643 0.07303,-0.255909 0.08913,-0.425816 0.01606,-0.169904 0.05783,-0.364523 0.0929,-0.432485 0.03502,-0.06796 0.07774,-0.231231 0.09493,-0.362816 0.01716,-0.131586 0.05928,-0.270598 0.09359,-0.308921 0.03435,-0.03833 0.07542,-0.16235 0.09144,-0.27562 0.01597,-0.113273 0.06159,-0.261553 0.101314,-0.329515 0.03972,-0.06796 0.08277,-0.193363 0.09563,-0.27867 0.01289,-0.08531 0.06159,-0.203648 0.1083,-0.262987 0.04663,-0.05934 0.0849,-0.158493 0.0849,-0.220348 0,-0.06186 0.03648,-0.1588 0.08097,-0.215438 0.04451,-0.05664 0.09312,-0.178765 0.107935,-0.271393 0.01479,-0.09263 0.06176,-0.199938 0.104349,-0.238472 0.04254,-0.03853 0.07739,-0.111028 0.07739,-0.161097 0,-0.05006 0.03597,-0.136701 0.07978,-0.192516 0.0439,-0.05581 0.09267,-0.155624 0.108377,-0.221798 0.01572,-0.06617 0.06116,-0.157388 0.101082,-0.202696 0.0399,-0.04531 0.08554,-0.143871 0.101458,-0.219028 0.01589,-0.07515 0.05475,-0.146571 0.08637,-0.158695 0.03161,-0.01213 0.07637,-0.09238 0.09954,-0.178335 0.02314,-0.08595 0.06868,-0.166486 0.101148,-0.178952 0.03246,-0.01247 0.07149,-0.08878 0.08662,-0.169572 0.0152,-0.0808 0.05381,-0.161614 0.08595,-0.17959 0.05758,-0.03223 0.153688,-0.186548 0.281418,-0.451927 0.03597,-0.07462 0.09138,-0.145667 0.123262,-0.1579 0.03186,-0.01223 0.06945,-0.07437 0.08337,-0.1381 0.014,-0.06372 0.0615,-0.148453 0.105485,-0.188295 0.04399,-0.03984 0.08005,-0.09006 0.08005,-0.111596 0,-0.02153 0.04639,-0.09423 0.10297,-0.161533 0.05664,-0.06731 0.10298,-0.147837 0.10298,-0.178955 0,-0.03112 0.03247,-0.07474 0.07209,-0.09692 0.06381,-0.03571 0.0721,-0.113545 0.0721,-0.678157 0,-0.596815 0.006,-0.645873 0.09268,-0.763228 0.05099,-0.06898 0.09267,-0.14315 0.09267,-0.164824 0,-0.05373 0.636852,-0.70533705 0.68936,-0.70533705 0.02305,0 0.06612,-0.02916 0.09574,-0.06479 0.02956,-0.03564 0.119887,-0.100707 0.200695,-0.144595 0.149588,-0.08125 0.200934,-0.11153 0.455838,-0.268817 0.07927,-0.04892 0.195133,-0.100707 0.257432,-0.115081 0.06228,-0.01437 0.113267,-0.04431 0.113267,-0.06653 0,-0.02223 0.07252,-0.0403999996338 0.161137,-0.0403999996338 0.154244,0 0.16223,0.006599999634 0.186482,0.1544599996338 0.01537,0.09378 -7.35e-4,0.243467 -0.04075,0.381003 -0.0364,0.124597 -0.0814,0.357596 -0.100067,0.51777505 -0.01871,0.16018 -0.07286,0.363793 -0.120409,0.452475 -0.04749,0.08868 -0.08643,0.200716 -0.08643,0.248969 0,0.04825 -0.03451,0.131934 -0.0767,0.185962 -0.0422,0.05402 -0.09083,0.14457 -0.10809,0.201204 -0.01725,0.05664 -0.06612,0.136133 -0.108642,0.17666 -0.04246,0.04053 -0.07722,0.09096 -0.07722,0.11207 0,0.06092 -0.419029,0.452679 -0.484197,0.452679 -0.03238,0 -0.105993,0.03707 -0.163588,0.08238 -0.07713,0.06065 -0.167101,0.08238 -0.341161,0.08238 -0.348353,0 -0.495046,0.03894 -0.534142,0.141768 -0.0486,0.127803 -0.288936,0.476073 -0.328546,0.476073 -0.05116,0 -0.07679,0.193545 -0.03374,0.25477 0.03127,0.04442 0.0422,0.04397 0.06073,-0.0025 0.04945,-0.123901 0.388826,-0.370955 0.553961,-0.40327 0.07585,-0.01484 0.183577,-0.05645 0.239322,-0.09246 0.145599,-0.09405 1.120776,-0.09212 1.299091,0.0025 0.06799,0.03609 0.230157,0.07859 0.360432,0.09443 0.130276,0.01585 0.261865,0.05381 0.29242,0.08437 0.03058,0.03056 0.132496,0.07628 0.226517,0.10159 0.167186,0.04502 0.170953,0.04998 0.170953,0.224987 0,0.164733 -0.01494,0.189974 -0.187917,0.31763 -0.103355,0.07627 -0.240406,0.180381 -0.304565,0.231352 -0.06416,0.05097 -0.129832,0.09267 -0.14595,0.09267 -0.01615,0 -0.0844,0.04634 -0.151673,0.102969 -0.06731,0.05663 -0.145881,0.10297 -0.174616,0.10297 -0.02871,0 -0.08579,0.03706 -0.12679,0.08238 -0.041,0.0453 -0.106258,0.08238 -0.144992,0.08238 -0.03878,0 -0.117778,0.03724 -0.175625,0.08274 -0.05783,0.0455 -0.166938,0.09343 -0.242398,0.106512 -0.07542,0.01308 -0.22405,0.05924 -0.330193,0.102616 -0.253682,0.103632 -0.625696,0.104062 -0.827938,9.39e-4 -0.08405,-0.04284 -0.197611,-0.08914 -0.252409,-0.102892 -0.05475,-0.01375 -0.177759,-0.100078 -0.273259,-0.191836 -0.172337,-0.165577 -0.173438,-0.168518 -0.147249,-0.39138 0.0217,-0.184381 0.01528,-0.22455 -0.0357,-0.22455 -0.03417,0 -0.06219,0.03346 -0.06219,0.07437 0,0.0409 -0.0463,0.137184 -0.102969,0.213949 -0.05663,0.07677 -0.10297,0.17017 -0.10297,0.207566 0,0.03739 -0.03707,0.101546 -0.08234,0.142545 -0.04527,0.041 -0.08234,0.118016 -0.08234,0.171141 0,0.05312 -0.03767,0.134239 -0.08363,0.180255 -0.04604,0.04601 -0.09448,0.137746 -0.107704,0.203841 -0.01316,0.0661 -0.05902,0.151799 -0.101679,0.190449 -0.04271,0.03864 -0.07765,0.111239 -0.07765,0.161309 0,0.05007 -0.03451,0.135239 -0.0767,0.189265 -0.101436,0.129884 -0.142968,0.270232 -0.08971,0.303143 0.02545,0.01572 0.04288,-0.01639 0.04288,-0.07891 0,-0.07037 0.02256,-0.105408 0.06774,-0.105408 0.03724,0 0.106766,-0.03848 0.154458,-0.08552 0.149135,-0.14708 0.404389,-0.291808 0.557513,-0.316107 0.08089,-0.01282 0.19258,-0.05283 0.24824,-0.08889 0.151135,-0.09789 1.162394,-0.09194 1.348678,0.0079 0.07252,0.03887 0.198211,0.07068 0.279351,0.07068 0.08115,0 0.211809,0.02686 0.290378,0.05968 0.121844,0.05091 0.142926,0.07966 0.143439,0.19565 3.76e-4,0.11935 -0.05322,0.187504 -0.439728,0.557678 -0.242176,0.231942 -0.478764,0.433853 -0.525762,0.448695 -0.04698,0.01483 -0.109669,0.0614 -0.139262,0.103455 -0.02956,0.04206 -0.07645,0.07647 -0.104117,0.07647 -0.02768,0 -0.08158,0.03656 -0.119863,0.08125 -0.03827,0.04469 -0.12116,0.0941 -0.184208,0.109801 -0.06304,0.0157 -0.134034,0.05478 -0.15773,0.08686 -0.05979,0.0809 -0.524592,0.187845 -0.821889,0.189112 -0.499206,0.0022 -0.849926,-0.192832 -0.940215,-0.522651 -0.02622,-0.09577 -0.04262,-0.110781 -0.07142,-0.06526 -0.02059,0.03251 -0.03776,0.116853 -0.03802,0.187424 -3.08e-4,0.07058 -0.03493,0.172515 -0.07679,0.226542 -0.04194,0.05401 -0.08916,0.181638 -0.105056,0.283584 -0.01589,0.101943 -0.05954,0.231689 -0.09692,0.288324 -0.03741,0.05664 -0.0809,0.210636 -0.09668,0.34222 -0.01572,0.131584 -0.05835,0.272058 -0.09465,0.312164 -0.04143,0.04578 -0.06441,0.140704 -0.06176,0.255024 l 0.0043,0.182113 0.04066,-0.152864 c 0.02409,-0.09053 0.07268,-0.163045 0.119306,-0.177833 0.04322,-0.01373 0.07867,-0.04502 0.07867,-0.06952 0,-0.05203 0.267631,-0.320601 0.319472,-0.320601 0.01939,0 0.09804,-0.04634 0.174796,-0.10297 0.07679,-0.05664 0.174061,-0.102969 0.216208,-0.102969 0.04211,0 0.163666,-0.04017 0.270031,-0.08931 0.166954,-0.07709 0.287602,-0.09189 0.88253,-0.108223 0.59245,-0.01627 0.703702,-0.0094 0.792898,0.04906 0.134265,0.08798 0.139449,0.277813 0.0111,0.405129 -0.05099,0.05056 -0.111209,0.122045 -0.133863,0.15887 -0.13481,0.219133 -0.275755,0.406252 -0.406806,0.540074 -0.08209,0.08382 -0.149255,0.163811 -0.149255,0.177742 0,0.04327 -0.445297,0.473032 -0.490134,0.473032 -0.02332,0 -0.06219,0.03683 -0.08626,0.08189 -0.02409,0.04503 -0.08827,0.09305 -0.142576,0.1066782 -0.05433,0.01363 -0.130471,0.05983 -0.169226,0.102649 -0.03878,0.04282 -0.137433,0.09012 -0.219275,0.105122 -0.08183,0.01498 -0.185371,0.05242 -0.230054,0.08318 -0.124594,0.08579 -0.427631,0.06638 -0.700721,-0.04484 -0.255544,-0.104084 -0.283348,-0.138458 -0.335018,-0.4140742 -0.02828,-0.150648 -0.03357,-0.135458 -0.06194,0.1773962 -0.01708,0.188186 -0.06466,0.438411 -0.105695,0.556058 -0.06637,0.190264 -0.07465,0.368661 -0.07465,1.614338 0,1.211922 0.0093,1.422926 0.06859,1.56751 0.03767,0.09189 0.08183,0.323586 0.09802,0.514867 0.01624,0.191293 0.05613,0.40032 0.08876,0.464517 0.03255,0.06419 0.0762,0.221819 0.0969,0.350266 0.02068,0.128435 0.075,0.306887 0.120716,0.39654 0.0457,0.08967 0.08312,0.207898 0.08312,0.262738 0,0.05484 0.03502,0.15749 0.07791,0.228134 0.04288,0.07064 0.09162,0.193298 0.108344,0.272584 0.01675,0.07927 0.06509,0.18836 0.107417,0.242398 0.04237,0.05399 0.07696,0.139559 0.07696,0.190086 0,0.05049 0.03597,0.137535 0.07987,0.193357 0.0439,0.05578 0.09246,0.155619 0.107914,0.221794 0.01546,0.06612 0.05176,0.1395 0.08063,0.162932 0.02887,0.0234 0.08294,0.106843 0.120084,0.185353 0.03707,0.0785 0.11278,0.216874 0.168142,0.307496 0.05535,0.09061 0.133479,0.229628 0.173608,0.308924 0.04015,0.07927 0.08508,0.15344 0.09996,0.164775 0.05279,0.04033 0.323094,0.451764 0.323094,0.491809 0,0.02247 0.03707,0.06056 0.08234,0.08482 0.04527,0.02426 0.08234,0.0703 0.08234,0.102373 0,0.03204 0.02332,0.07312 0.05176,0.09123 0.02845,0.01811 0.116513,0.122665 0.195646,0.232318 0.07919,0.109669 0.185594,0.238119 0.236564,0.285459 0.05099,0.04741 0.09268,0.109293 0.09268,0.137655 0,0.02836 0.03707,0.06329 0.08234,0.07773 0.04527,0.01436 0.08234,0.041 0.08234,0.05902 0,0.02545 0.373381,0.439318 0.606845,0.672788 0.233471,0.233463 0.647418,0.606843 0.672788,0.606843 0.01811,0 0.04468,0.03707 0.05902,0.08234 0.01436,0.04536 0.04938,0.08235 0.07773,0.08235 0.02836,0 0.09071,0.04169 0.138534,0.09267 0.04784,0.05099 0.111398,0.111568 0.141287,0.134657 0.423839,0.327366 0.569215,0.449696 0.569215,0.478969 0,0.01921 0.0246,0.03511 0.05457,0.03511 0.03008,0 0.09814,0.0463 0.15134,0.102969 0.05322,0.05663 0.118077,0.102981 0.144164,0.102981 0.02614,0 0.09095,0.0463 0.144164,0.102969 0.05322,0.05663 0.121153,0.10297 0.15099,0.10297 0.0299,0 0.07739,0.03707 0.105695,0.08234 0.02828,0.04527 0.07338,0.08235 0.100166,0.08235 0.02673,0 0.101116,0.04382 0.165143,0.09733 0.06407,0.05356 0.15643,0.109856 0.205308,0.12514 0.04886,0.01529 0.09927,0.05484 0.111977,0.088 0.01274,0.03314 0.05006,0.06023 0.08303,0.06023 0.03297,0 0.112311,0.04382 0.176352,0.09734 0.06407,0.05356 0.158129,0.110397 0.209108,0.126344 0.05099,0.01589 0.09267,0.04545 0.09267,0.06552 0,0.02008 0.08337,0.07338 0.185354,0.118479 0.101943,0.04509 0.185345,0.09926 0.185345,0.12034 0,0.02109 0.05338,0.04902 0.118605,0.0621 0.06526,0.01307 0.148599,0.05373 0.185261,0.09038 0.09971,0.09971 0.31398,0.153389 0.31398,0.07867 0,-0.03238 -0.02469,-0.05893 -0.05484,-0.05893 -0.03015,0 -0.108918,-0.06466 -0.17506,-0.143703 -0.06612,-0.07901 -0.16194,-0.191213 -0.21291,-0.249274 -0.051,-0.05808 -0.09267,-0.139628 -0.09267,-0.181305 0,-0.0416 -0.03665,-0.15655 -0.08149,-0.255305 -0.110816,-0.244208 -0.112073,-0.712431 -0.0025,-1.044529 0.04467,-0.13593 0.09198,-0.316048 0.105011,-0.400272 0.01307,-0.08422 0.04929,-0.178742 0.08063,-0.210041 0.03127,-0.03127 0.07739,-0.133059 0.102473,-0.226134 0.02511,-0.09307 0.0644,-0.180843 0.08737,-0.195057 0.02298,-0.01427 0.07081,-0.0984 0.106324,-0.187088 0.03545,-0.08869 0.07876,-0.161257 0.09625,-0.161257 0.01743,0 0.05475,-0.05561 0.08294,-0.123569 0.03417,-0.0826 0.0803,-0.123568 0.138859,-0.123568 0.103941,0 0.298109,0.227789 0.338394,0.396956 0.01546,0.06483 0.05509,0.149025 0.08805,0.187045 0.03297,0.03802 0.07791,0.148965 0.09982,0.246533 0.02195,0.09757 0.06636,0.2067 0.0988,0.242517 0.03246,0.03579 0.07603,0.175103 0.09691,0.309538 0.02085,0.134409 0.06663,0.318532 0.101612,0.409147 0.09424,0.243943 0.0883,0.814424 -0.01071,1.027036 -0.04288,0.0921 -0.08872,0.215037 -0.101855,0.273183 -0.01316,0.05817 -0.125918,0.211048 -0.250616,0.339811 -0.209919,0.216729 -0.240551,0.234086 -0.413008,0.234086 -0.10245,0 -0.186275,0.01854 -0.186275,0.04116 0,0.02264 0.03348,0.04125 0.0744,0.04125 0.04091,0 0.137186,0.0463 0.213953,0.102981 0.07679,0.05663 0.172319,0.10298 0.212346,0.10298 0.04006,0 0.105928,0.03493 0.146454,0.07756 0.04057,0.04262 0.132009,0.09006 0.203284,0.10532 0.07124,0.0152 0.160531,0.06194 0.198346,0.103687 0.03784,0.04177 0.133376,0.08809 0.212382,0.102914 0.07901,0.01487 0.153184,0.05185 0.16486,0.08226 0.0117,0.03042 0.103389,0.07603 0.203788,0.101292 0.100398,0.02528 0.182552,0.06356 0.182552,0.08499 0,0.02144 0.07816,0.06005 0.173601,0.08575 0.09549,0.02563 0.218462,0.08201 0.273285,0.125167 0.05484,0.04313 0.129617,0.0785 0.166211,0.07858 0.03665,8.7e-5 0.127208,0.03716 0.201387,0.08234 0.07415,0.04518 0.158294,0.08225 0.186934,0.08225 0.02862,0 0.125432,0.03741 0.215072,0.08311 l 0.162992,0.08311 0.193168,-0.08311 c 0.106237,-0.0457 0.222163,-0.08311 0.257612,-0.08311 0.03545,0 0.101512,-0.03707 0.14683,-0.08234 0.04527,-0.04536 0.125874,-0.08234 0.17905,-0.08234 0.05322,0 0.138098,-0.03597 0.188735,-0.07987 0.05065,-0.0439 0.150777,-0.09267 0.222546,-0.108344 0.07176,-0.01563 0.174685,-0.06321 0.228714,-0.105497 0.05399,-0.04237 0.129198,-0.07697 0.167048,-0.07697 0.03784,0 0.131633,-0.0463 0.208391,-0.102969 0.07679,-0.05663 0.170542,-0.10297 0.208393,-0.10297 0.03784,0 0.113028,-0.03451 0.167056,-0.0767 0.05399,-0.0422 0.144566,-0.09107 0.201208,-0.108631 0.05663,-0.01759 0.147171,-0.06645 0.2012,-0.108642 0.05399,-0.0422 0.125491,-0.0767 0.158814,-0.0767 0.03331,0 0.11565,-0.0463 0.182962,-0.10298 0.06731,-0.05663 0.158019,-0.102981 0.201592,-0.102981 0.04356,0 0.07919,-0.01854 0.07919,-0.04125 0,-0.02265 -0.07876,-0.04143 -0.175052,-0.04186 -0.150033,-6.15e-4 -0.203036,-0.02698 -0.370709,-0.184217 -0.107615,-0.10095 -0.195646,-0.206017 -0.195646,-0.233497 0,-0.02741 -0.04168,-0.09437 -0.09268,-0.148674 -0.08914,-0.09496 -0.09265,-0.127242 -0.09199,-0.84703 7.35e-4,-0.678392 0.0087,-0.763717 0.0868,-0.913076 0.04741,-0.09062 0.09724,-0.236564 0.110825,-0.324324 0.01359,-0.08776 0.0516,-0.189719 0.0844,-0.226544 0.03289,-0.03682 0.08021,-0.143839 0.105176,-0.237802 0.02502,-0.09394 0.07304,-0.181407 0.1068,-0.194349 0.03374,-0.0129 0.06133,-0.06244 0.06133,-0.109922 0,-0.128471 0.07551,-0.24572 0.158267,-0.24572 0.10021,0 0.336009,0.202055 0.336009,0.287919 0,0.03844 0.03536,0.102064 0.07867,0.141217 0.04331,0.03912 0.09043,0.118034 0.10479,0.175274 0.01436,0.05723 0.06065,0.153184 0.102826,0.21321 0.0422,0.06005 0.08929,0.183278 0.104636,0.2739 0.01537,0.09061 0.05877,0.199133 0.09652,0.241134 0.09885,0.110077 0.123707,1.354768 0.03015,1.509414 -0.03426,0.05663 -0.09266,0.167544 -0.129763,0.246455 -0.03707,0.07893 -0.102473,0.168013 -0.145266,0.197987 -0.04279,0.02999 -0.07782,0.0809 -0.07782,0.113166 0,0.03229 -0.0463,0.07029 -0.102969,0.08447 -0.05664,0.01418 -0.102981,0.04237 -0.102981,0.06261 0,0.06757 0.204976,0.03767 0.284007,-0.04134 0.07585,-0.07594 0.158592,-0.126568 0.457409,-0.280283 0.07927,-0.04075 0.1582,-0.09593 0.175369,-0.122543 0.01716,-0.02665 0.09594,-0.06979 0.175051,-0.09586 0.0791,-0.02615 0.143849,-0.06432 0.143849,-0.0849 0,-0.02059 0.06022,-0.0627 0.133862,-0.09339 0.07363,-0.03075 0.159309,-0.08665 0.190402,-0.124132 0.03109,-0.0375 0.08072,-0.06817 0.110331,-0.06817 0.02956,0 0.08618,-0.03246 0.125773,-0.0721 0.03955,-0.03963 0.166023,-0.131154 0.280965,-0.20336 0.20137,-0.126491 0.299193,-0.197057 0.490425,-0.353778 0.04911,-0.04024 0.182927,-0.142677 0.297399,-0.227629 0.258149,-0.191589 0.330834,-0.251221 0.449209,-0.368538 0.05142,-0.05099 0.105486,-0.09266 0.12011,-0.09266 0.06594,0 1.520049,-1.424625 1.818507,-1.781683 0.09006,-0.107726 0.242518,-0.280503 0.338796,-0.383931 0.09627,-0.103444 0.175052,-0.202737 0.175052,-0.220649 0,-0.03007 0.16921,-0.267888 0.296024,-0.416007 0.02973,-0.03469 0.108267,-0.145958 0.174489,-0.247137 0.06621,-0.101182 0.163537,-0.249839 0.21625,-0.330339 0.0527,-0.08054 0.09584,-0.165682 0.09584,-0.189266 0,-0.02357 0.03707,-0.07645 0.08234,-0.117445 0.04527,-0.041 0.08234,-0.105144 0.08234,-0.142542 0,-0.03741 0.04639,-0.130803 0.102969,-0.207562 0.05663,-0.07679 0.10297,-0.161283 0.10297,-0.187806 0,-0.02649 0.03426,-0.09242 0.07611,-0.146461 0.04186,-0.05399 0.08934,-0.152365 0.10553,-0.21854 0.01623,-0.06612 0.06535,-0.165988 0.109249,-0.221802 0.0439,-0.05578 0.07978,-0.135179 0.07978,-0.176369 0,-0.09233 0.08483,-0.284705 0.125508,-0.284705 0.0164,0 0.04177,-0.07935 0.05638,-0.176403 0.01461,-0.09701 0.06295,-0.236477 0.107649,-0.309913 0.04467,-0.07346 0.08124,-0.194026 0.08124,-0.267987 0,-0.07394 0.03648,-0.20596 0.08097,-0.293357 0.04459,-0.08742 0.09343,-0.272044 0.108609,-0.410308 0.0152,-0.138268 0.05954,-0.334804 0.0986,-0.436753 0.04382,-0.114278 0.08192,-0.374866 0.09938,-0.679624 0.01563,-0.27185 0.05688,-0.633139 0.09184,-0.802866 0.06808,-0.330902 0.06023,-0.792659 -0.02179,-1.291009 -0.02545,-0.154846 -0.06228,-0.54147 -0.08175,-0.859157 -0.02264,-0.369827 -0.05313,-0.588595 -0.08474,-0.608145 -0.02716,-0.01681 -0.07517,-0.1028152 -0.106644,-0.1911702 l -0.05724,-0.16064 -0.0018,0.237722 c -0.0018,0.2199592 -0.01026,0.2411682 -0.115078,0.2838182 -0.06228,0.02534 -0.171678,0.07128 -0.243065,0.102086 -0.166911,0.07201 -0.416791,0.07118 -0.556762,-0.0019 -0.06048,-0.03153 -0.183909,-0.06985 -0.274361,-0.08512 -0.09044,-0.01529 -0.196783,-0.0635 -0.23629,-0.107164 -0.03947,-0.04366 -0.09491,-0.07937 -0.123117,-0.07937 -0.05731,0 -0.816569,-0.7383222 -0.945092,-0.9190022 -0.04527,-0.06369 -0.124082,-0.155084 -0.175061,-0.203081 -0.05099,-0.048 -0.09267,-0.110803 -0.09267,-0.139575 0,-0.02875 -0.02468,-0.06712 -0.05484,-0.08525 -0.03015,-0.01813 -0.108941,-0.130123 -0.175019,-0.248906 -0.210467,-0.378312 -0.07346,-0.44184 0.888919,-0.412258 0.550134,0.01692 0.661139,0.0318 0.802586,0.107682 0.09028,0.04843 0.202523,0.08806 0.249428,0.08806 0.04689,0 0.148094,0.04633 0.224861,0.10297 0.07679,0.05663 0.15819,0.102969 0.180954,0.102969 0.0609,0 0.436883,0.411632 0.436883,0.478358 0,0.03141 0.01854,0.0571 0.04117,0.0571 0.07338,0 0.04587,-0.373991 -0.03759,-0.510002 -0.04331,-0.07064 -0.09192,-0.221107 -0.108013,-0.334376 -0.01606,-0.113274 -0.05552,-0.236035 -0.08765,-0.272805 -0.03212,-0.03675 -0.07312,-0.157252 -0.09106,-0.267733 -0.01802,-0.110482 -0.07277,-0.265746 -0.121758,-0.345036 -0.04903,-0.07928 -0.0916,-0.199766 -0.09465,-0.26773 -0.0034,-0.06796 -0.0193,-0.01611 -0.03613,0.11522 -0.02511,0.196304 -0.05399,0.259706 -0.162247,0.356363 -0.07244,0.06467 -0.199901,0.130325 -0.283262,0.145902 -0.08337,0.01559 -0.174028,0.04687 -0.201481,0.06956 -0.108245,0.08944 -0.930913,-0.05531 -1.079708,-0.189982 -0.0392,-0.0355 -0.10234,-0.06457 -0.140199,-0.06457 -0.03784,0 -0.104923,-0.03608 -0.149026,-0.08019 -0.04408,-0.04411 -0.132145,-0.107462 -0.195646,-0.140797 -0.06347,-0.03334 -0.187302,-0.126997 -0.275105,-0.20814 -0.08779,-0.08114 -0.168979,-0.147529 -0.180401,-0.147529 -0.01145,0 -0.09713,-0.07249 -0.190478,-0.161094 -0.09332,-0.0886 -0.240117,-0.22603 -0.326178,-0.305388 -0.101259,-0.09338 -0.164067,-0.192778 -0.177991,-0.281691 -0.0317,-0.202162 0.04672,-0.27876 0.313878,-0.30678 0.124595,-0.01307 0.291411,-0.05381 0.370699,-0.09053 0.207094,-0.09593 1.174293,-0.09853 1.31984,-0.0035 0.0557,0.03632 0.187105,0.07884 0.292104,0.09448 0.10766,0.01605 0.2227,0.06358 0.263812,0.109018 0.04015,0.04432 0.09074,0.08057 0.112542,0.08057 0.02179,0 0.111593,0.07415 0.19956,0.164805 l 0.15994,0.164805 v -0.139051 c 0,-0.07654 -0.02768,-0.16213 -0.0615,-0.190197 -0.03383,-0.02806 -0.08192,-0.127647 -0.106976,-0.221287 -0.02502,-0.09364 -0.08072,-0.203416 -0.123868,-0.243944 -0.04313,-0.04052 -0.07832,-0.116429 -0.07832,-0.168672 0,-0.05225 -0.03536,-0.127025 -0.07867,-0.166184 -0.04331,-0.03916 -0.09076,-0.119344 -0.10553,-0.178188 -0.01478,-0.05885 -0.06279,-0.152655 -0.106677,-0.208471 -0.0439,-0.05581 -0.07978,-0.133179 -0.07978,-0.171921 0,-0.03875 -0.03604,-0.103036 -0.08004,-0.142878 -0.04399,-0.03983 -0.09183,-0.126123 -0.106247,-0.191737 -0.01444,-0.06561 -0.0445,-0.119297 -0.06697,-0.119297 -0.02579,0 -0.03033,0.119587 -0.01222,0.326948 l 0.02853,0.326948 -0.159549,0.147665 c -0.08776,0.08122 -0.205897,0.159003 -0.26253,0.172858 -0.05663,0.01386 -0.135306,0.05328 -0.174822,0.08761 -0.0445,0.03867 -0.188284,0.06989 -0.377823,0.08206 -0.249377,0.016 -0.338948,0.0042 -0.484216,-0.06382 -0.09803,-0.04589 -0.247138,-0.09531 -0.331362,-0.109801 -0.08423,-0.01449 -0.177419,-0.05065 -0.207084,-0.0803 -0.02964,-0.02968 -0.124245,-0.07716 -0.210161,-0.105497 -0.08592,-0.02835 -0.166151,-0.0775 -0.178323,-0.109194 -0.01213,-0.0317 -0.05578,-0.05764 -0.09692,-0.05764 -0.04117,0 -0.129882,-0.04634 -0.197184,-0.102969 -0.06731,-0.05664 -0.139535,-0.10297 -0.160497,-0.10297 -0.02101,0 -0.07628,-0.04172 -0.122852,-0.09267 -0.04664,-0.05097 -0.179382,-0.15755 -0.29505,-0.23684 -0.296289,-0.203106 -0.336924,-0.406277 -0.0996,-0.498041 0.06295,-0.02434 0.179962,-0.07805 0.26007,-0.119364 0.08012,-0.04132 0.237649,-0.08768 0.350104,-0.103047 0.112465,-0.01536 0.269348,-0.05879 0.348636,-0.09651 0.201728,-0.09598 1.170124,-0.09928 1.319779,-0.0045 0.0557,0.03527 0.178111,0.08641 0.272048,0.113647 0.09394,0.02724 0.181399,0.07716 0.194357,0.11093 0.01299,0.03377 0.04356,0.06141 0.06808,0.06141 0.07124,0 0.328766,0.269428 0.328766,0.343973 0,0.03736 0.01854,0.06792 0.04117,0.06792 0.02264,0 0.04117,-0.06363 0.04117,-0.141386 0,-0.10521 -0.02109,-0.148078 -0.08234,-0.167534 -0.04527,-0.01438 -0.08234,-0.0491 -0.08234,-0.07716 0,-0.02805 -0.0463,-0.113815 -0.10297,-0.19058 -0.05663,-0.07677 -0.102969,-0.166755 -0.102969,-0.199977 0,-0.03322 -0.05893,-0.11303 -0.130984,-0.177349 -0.117477,-0.10489 -0.160914,-0.116987 -0.422155,-0.117532 -0.179085,-3.74e-4 -0.330851,-0.02367 -0.394181,-0.06051 -0.05664,-0.03293 -0.154339,-0.08096 -0.217114,-0.1067 -0.06279,-0.02574 -0.132932,-0.08192 -0.15591,-0.124845 -0.02298,-0.04292 -0.06893,-0.07805 -0.102097,-0.07805 -0.03323,0 -0.06031,-0.0179 -0.06031,-0.03977 0,-0.02187 -0.05561,-0.09666 -0.12357,-0.166178 -0.06799,-0.06952 -0.123569,-0.150699 -0.123569,-0.18039 0,-0.02969 -0.03707,-0.08753 -0.08234,-0.128531 -0.04527,-0.04101 -0.08234,-0.115518 -0.08234,-0.165585 0,-0.05006 -0.03724,-0.138348 -0.08268,-0.196174 -0.04545,-0.05782 -0.09446,-0.194707 -0.10883,-0.304179 -0.01436,-0.10947 -0.05801,-0.263913 -0.09698,-0.343203 -0.07841,-0.15965805 -0.140985,-0.80789505 -0.09845,-1.02062305 0.02222,-0.111098 0.04509,-0.13267799963381 0.140552,-0.13267799963381 0.06338,0 0.124551,0.0274599996338 0.137723,0.0617799996338 0.01307,0.03398 0.06817,0.06178 0.122416,0.06178 0.05433,0 0.142918,0.03453 0.196945,0.07671 0.05399,0.0422 0.144566,0.09072 0.201208,0.107847 0.05663,0.01713 0.135538,0.05973 0.175335,0.09468 0.03981,0.03495 0.106655,0.08373 0.148572,0.1084 0.356955,0.210063 0.838811,0.64185005 0.887509,0.79529205 0.01503,0.04748 0.05279,0.09605 0.08371,0.107946 0.031,0.01189 0.06919,0.0831 0.08483,0.158265 0.01572,0.07515 0.05808,0.182987 0.09428,0.239621 0.08097,0.126806 0.08931,0.68855 0.01358,0.914187 -0.04433,0.132077 -0.04134,0.167447 0.02272,0.267731 0.04058,0.06356 0.106568,0.139769 0.146608,0.169371 0.04006,0.02961 0.07277,0.0777 0.07277,0.106865 0,0.02917 0.0463,0.106898 0.102925,0.172719 0.05663,0.06582 0.102936,0.135537 0.102969,0.15492 2.6e-5,0.01939 0.04639,0.09031 0.103014,0.157622 0.05663,0.0673 0.102981,0.145884 0.102981,0.174617 0,0.02873 0.03707,0.08579 0.08234,0.126791 0.04527,0.04101 0.08234,0.09588 0.08234,0.12195 0,0.02608 0.0463,0.110209 0.10298,0.186971 0.05663,0.07677 0.102969,0.168585 0.102969,0.204042 0,0.03547 0.03536,0.08658 0.07867,0.113601 0.04331,0.02702 0.09211,0.110254 0.10851,0.184961 0.0164,0.07472 0.06441,0.16005 0.106677,0.189652 0.04229,0.0296 0.07688,0.09641 0.07688,0.148447 0,0.05205 0.0463,0.144625 0.10298,0.205735 0.05715,0.06165 0.10297,0.160763 0.10297,0.222648 0,0.06404 0.03255,0.131867 0.07645,0.159279 0.04203,0.02625 0.087,0.112733 0.09988,0.192169 0.0129,0.07943 0.06194,0.182889 0.108907,0.229898 0.04698,0.04702 0.08547,0.133519 0.08547,0.192243 0,0.05872 0.03554,0.151947 0.07893,0.20716 0.0434,0.05522 0.09173,0.175941 0.107329,0.268288 0.01563,0.09234 0.06347,0.203012 0.106391,0.245925 0.04288,0.04291 0.07816,0.128993 0.07834,0.191291 1.53e-4,0.06229 0.03673,0.168591 0.08133,0.236205 0.04459,0.06762 0.09339,0.205359 0.108499,0.306093 0.01512,0.10074 0.05971,0.240036 0.09918,0.309554 0.03947,0.06952 0.08285,0.214578 0.09643,0.322358 0.01358,0.10777 0.05459,0.241496 0.09101,0.297148 0.03647,0.05566 0.07645,0.217699 0.08879,0.360096 0.01238,0.142397 0.05484,0.32378 0.09436,0.403071 0.04297,0.0862 0.08396,0.301469 0.101877,0.5354622 0.01649,0.215214 0.04655,0.411772 0.06672,0.436798 0.09262,0.114809 0.126132,0.775953 0.110918,2.188208 -0.01315,1.226195 -0.02674,1.49783 -0.08063,1.61935 -0.03562,0.0803 -0.07832,0.293462 -0.09496,0.473676 -0.01658,0.18022 -0.0639,0.411075 -0.105132,0.513012 -0.04125,0.101955 -0.08593,0.276832 -0.09931,0.388631 -0.01341,0.111807 -0.04954,0.241724 -0.0803,0.28873 -0.03084,0.04698 -0.07765,0.186455 -0.10414,0.309914 -0.02649,0.123449 -0.07295,0.253014 -0.103289,0.287927 -0.03033,0.03493 -0.06749,0.132367 -0.0826,0.2166 -0.01512,0.08423 -0.05356,0.179288 -0.08557,0.21127 -0.03195,0.03195 -0.07106,0.111346 -0.08686,0.176376 -0.02716,0.111635 -0.183339,0.456846 -0.267853,0.59192 -0.02127,0.034 -0.06817,0.126346 -0.104173,0.205258 -0.03604,0.07892 -0.100541,0.187985 -0.143335,0.242397 -0.0428,0.05442 -0.07782,0.132838 -0.07782,0.174292 0,0.04143 -0.03707,0.09521 -0.08234,0.11947 -0.04536,0.02426 -0.08234,0.0791 -0.08234,0.121851 0,0.04279 -0.0463,0.132838 -0.10297,0.20015 -0.05663,0.06731 -0.102969,0.135562 -0.102969,0.15168 0,0.01606 -0.0463,0.0844 -0.10297,0.151665 -0.05664,0.06731 -0.102969,0.14811 -0.102969,0.179545 0,0.03143 -0.03707,0.07704 -0.08234,0.10127 -0.04527,0.02418 -0.08234,0.07106 -0.08234,0.104073 0,0.03297 -0.03707,0.08311 -0.08234,0.111431 -0.04527,0.02828 -0.08234,0.07048 -0.08234,0.09363 0,0.02323 -0.09367,0.157925 -0.208135,0.299398 -0.114472,0.141483 -0.198099,0.273483 -0.185824,0.293343 0.0246,0.03981 0.214857,-0.0199 0.430348,-0.13499 0.12345,-0.06594 0.222255,-0.07244 0.864977,-0.05654 0.524328,0.01298 0.771313,0.0357 0.890371,0.08226 0.09061,0.03536 0.275968,0.08268 0.411889,0.105045 0.221257,0.03647 0.552013,0.134777 0.720821,0.214285 0.03451,0.01624 0.06756,0.09711 0.07474,0.182912 0.01082,0.128917 -0.0092,0.175231 -0.12357,0.286218 -0.07508,0.07286 -0.169004,0.144806 -0.208639,0.15995 -0.03963,0.01512 -0.0721,0.04484 -0.0721,0.06594 0,0.02109 -0.06876,0.08192 -0.152791,0.135152 -0.365078,0.231164 -0.453933,0.283067 -0.614976,0.359312 -0.09379,0.04442 -0.181919,0.09918 -0.195861,0.121741 -0.01393,0.02256 -0.104029,0.05374 -0.200191,0.06911 -0.09616,0.01546 -0.22118,0.05885 -0.277813,0.09626 -0.151391,0.100144 -1.10957,0.09957 -1.220975,-6.15e-4 -0.04211,-0.03793 -0.125303,-0.08106 -0.184961,-0.09593 -0.142993,-0.0357 -0.526532,-0.41417 -0.601497,-0.593596 -0.03895,-0.09326 -0.05006,-0.202573 -0.03255,-0.319788 0.0147,-0.09795 0.01597,-0.178093 0.0034,-0.178093 -0.01307,0 -0.07448,0.05706 -0.136389,0.126833 -0.219703,0.247454 -0.747925,0.779334 -0.773962,0.779334 -0.01452,0 -0.105221,0.08346 -0.201516,0.185354 -0.09629,0.101954 -0.195151,0.185354 -0.219683,0.185354 -0.02452,0 -0.05604,0.03613 -0.07005,0.0803 -0.01402,0.04417 -0.06159,0.09174 -0.105751,0.105751 -0.04417,0.01393 -0.0803,0.04356 -0.0803,0.06578 0,0.0451 0.243697,0.01393 0.422098,-0.05399 0.184328,-0.07005 1.161035,0.06313 1.354555,0.184714 0.05356,0.03374 0.166373,0.07329 0.250599,0.08808 0.08422,0.01478 0.178741,0.05246 0.210048,0.0838 0.03127,0.03126 0.131675,0.07704 0.223067,0.101657 0.09138,0.0246 0.188129,0.07124 0.214986,0.103576 0.02691,0.03238 0.101877,0.07056 0.166715,0.08474 0.06483,0.01427 0.14085,0.05356 0.168927,0.08741 0.02811,0.03383 0.112765,0.08731 0.188199,0.118829 0.122519,0.05117 0.137143,0.07465 0.137143,0.219684 0,0.151006 -0.01161,0.167015 -0.16476,0.228303 -0.09061,0.03622 -0.164759,0.08389 -0.164759,0.105806 0,0.02186 -0.07876,0.06304 -0.175051,0.09138 -0.09627,0.02828 -0.19359,0.07465 -0.216242,0.103003 -0.02264,0.02828 -0.130403,0.07106 -0.239442,0.09507 -0.10905,0.02392 -0.239297,0.07048 -0.289448,0.103312 -0.112627,0.07381 -0.69071,0.157721 -1.077493,0.156438 -0.404338,-8.54e-4 -0.802458,-0.0791 -0.906756,-0.177077 -0.04792,-0.04502 -0.10255,-0.08184 -0.121442,-0.08184 -0.05322,0 -0.473905,-0.466976 -0.474596,-0.52684 -3.16e-4,-0.0293 -0.04033,-0.106832 -0.08881,-0.172438 -0.06688,-0.09048 -0.08243,-0.154722 -0.0644,-0.266058 0.02921,-0.180376 -0.0052,-0.183654 -0.182895,-0.01734 -0.126515,0.11841 -0.322606,0.26125 -0.545554,0.397401 -0.04783,0.02921 -0.170345,0.117402 -0.272295,0.196007 -0.101943,0.07858 -0.236315,0.163102 -0.298621,0.187771 -0.204428,0.08097 -0.137006,0.151929 0.164759,0.173396 0.37092,0.02631 0.686849,0.09832 0.937063,0.213398 0.113266,0.05211 0.245968,0.106589 0.294896,0.1211 0.04895,0.01461 0.11144,0.05347 0.138911,0.08657 0.0275,0.03314 0.08251,0.06023 0.122245,0.06023 0.03972,0 0.09773,0.03058 0.128824,0.06817 0.03109,0.0375 0.117572,0.09368 0.192186,0.124876 0.07465,0.03118 0.146104,0.08389 0.158866,0.11718 0.01274,0.03331 0.04706,0.06047 0.07619,0.06047 0.02921,0 0.194007,0.114422 0.366301,0.254263 0.269237,0.218524 0.31327,0.272372 0.31327,0.383068 0,0.149632 -0.06338,0.227655 -0.184883,0.227655 -0.04732,0 -0.159455,0.03793 -0.249198,0.08431 -0.08974,0.04639 -0.274379,0.100221 -0.4103,0.119681 -0.13593,0.01947 -0.321283,0.06407 -0.411897,0.09923 -0.25727,0.09972 -1.176394,0.09265 -1.397728,-0.01082 -0.09211,-0.04296 -0.236972,-0.09021 -0.321923,-0.104835 -0.08499,-0.01461 -0.154467,-0.0439 -0.154467,-0.06492 0,-0.02109 -0.06286,-0.07124 -0.139756,-0.111404 -0.158139,-0.08268 -0.436891,-0.398256 -0.436891,-0.49461 0,-0.03502 -0.03109,-0.08637 -0.06902,-0.11414 -0.04732,-0.0346 -0.07483,-0.1303 -0.08737,-0.303824 -0.01004,-0.139328 -0.02999,-0.260421 -0.04426,-0.269082 -0.01427,-0.0086 -0.09077,0.01871 -0.170064,0.06082 -0.07927,0.04212 -0.208391,0.107053 -0.286902,0.144242 -0.0785,0.03716 -0.161906,0.09147 -0.185345,0.120613 -0.02349,0.02904 -0.110482,0.07448 -0.193435,0.100707 -0.08294,0.02631 -0.160231,0.07227 -0.171729,0.102219 -0.01145,0.02999 -0.07192,0.06731 -0.134255,0.08294 -0.06237,0.01563 -0.159019,0.0644 -0.214833,0.108267 -0.05578,0.04391 -0.124287,0.07987 -0.152159,0.07987 -0.02785,0 -0.09487,0.03451 -0.148897,0.0767 -0.05399,0.0422 -0.144573,0.09097 -0.201207,0.108378 -0.05664,0.01734 -0.149316,0.06398 -0.205949,0.103521 -0.05663,0.03947 -0.163367,0.0849 -0.237179,0.100917 -0.130685,0.02828 -0.241543,0.153508 -0.198124,0.223758 0.01188,0.01921 0.09373,0.04639 0.181903,0.06056 0.08818,0.01418 0.181613,0.05125 0.20764,0.08268 0.02606,0.03143 0.124885,0.06945 0.219692,0.08456 0.0948,0.0152 0.228834,0.06151 0.297845,0.102925 0.06902,0.04143 0.205684,0.08542 0.303721,0.09765 0.09804,0.01222 0.209247,0.04963 0.247138,0.08311 0.03793,0.0334 0.152297,0.07406 0.254237,0.09021 0.101943,0.01623 0.243141,0.06457 0.313785,0.107461 0.07064,0.04288 0.18256,0.07799 0.248718,0.07799 0.06621,0 0.19235,0.03673 0.280409,0.08166 0.08806,0.04493 0.258364,0.09978 0.378456,0.12199 0.120093,0.02222 0.260481,0.06663 0.311981,0.09879 0.05151,0.0322 0.181989,0.06962 0.289986,0.08329 0.108002,0.01366 0.253203,0.05424 0.322676,0.09016 0.06945,0.03597 0.240381,0.08371 0.379787,0.106148 0.139406,0.02247 0.282964,0.06749 0.319004,0.100122 0.03604,0.03262 0.09519,0.05936 0.131435,0.05936 0.192375,0 0.248703,0.251778 0.112969,0.505024 -0.04527,0.08456 -0.08234,0.190838 -0.08234,0.236238 0,0.07953 -0.02698,0.08251 -0.737981,0.08251 -0.498848,0 -0.74286,-0.01461 -0.753042,-0.04518 -0.0086,-0.02478 -0.116402,-0.06347 -0.240271,-0.08583 -0.123859,-0.02229 -0.254296,-0.06672 -0.289856,-0.09863 -0.03554,-0.03186 -0.164008,-0.07688 -0.285459,-0.09988 -0.121451,-0.02298 -0.249905,-0.06722 -0.285467,-0.09828 -0.03554,-0.031 -0.148341,-0.06842 -0.250632,-0.08311 -0.102285,-0.01469 -0.241295,-0.06313 -0.308915,-0.107737 -0.06756,-0.04459 -0.169277,-0.08124 -0.225911,-0.08149 -0.05663,-3.07e-4 -0.161863,-0.03631 -0.233838,-0.08021 -0.07201,-0.0439 -0.20173,-0.09273 -0.288328,-0.108521 -0.0866,-0.0158 -0.203796,-0.06065 -0.260431,-0.0997 -0.05663,-0.03904 -0.171883,-0.08355 -0.256108,-0.09889 -0.08422,-0.01537 -0.17887,-0.05365 -0.210321,-0.08508 -0.03143,-0.03143 -0.12937,-0.06962 -0.217574,-0.08465 -0.0882,-0.01503 -0.206719,-0.05971 -0.263352,-0.09907 -0.05663,-0.03947 -0.164716,-0.08389 -0.240176,-0.09878 -0.07542,-0.01494 -0.184544,-0.06432 -0.242398,-0.109845 -0.05783,-0.04552 -0.146522,-0.08277 -0.197049,-0.08277 -0.05048,0 -0.138996,-0.03707 -0.196594,-0.08234 -0.123356,-0.09704 -0.207488,-0.104471 -0.274089,-0.02418 -0.02656,0.03195 -0.139107,0.07996 -0.250138,0.106589 -0.111029,0.02665 -0.223177,0.07415 -0.24923,0.105508 -0.02606,0.03143 -0.115011,0.06919 -0.197689,0.08396 -0.08269,0.01478 -0.181433,0.05399 -0.219453,0.08719 -0.03802,0.03314 -0.148965,0.07825 -0.246533,0.100133 -0.09757,0.02187 -0.207802,0.0674 -0.244977,0.101027 -0.03716,0.03357 -0.139389,0.07252 -0.22715,0.08629 -0.08776,0.01384 -0.201814,0.05783 -0.253451,0.09781 -0.05168,0.03997 -0.172123,0.08548 -0.267734,0.101148 -0.09562,0.01563 -0.201951,0.05313 -0.236298,0.08346 -0.03434,0.03024 -0.151365,0.07491 -0.260037,0.09925 -0.108675,0.02444 -0.238118,0.07038 -0.287662,0.102253 -0.04954,0.03186 -0.163829,0.07149 -0.253989,0.08798 -0.09016,0.01658 -0.219898,0.06415 -0.28832,0.105872 -0.06841,0.04168 -0.17102,0.07594 -0.227987,0.07603 -0.05697,8.6e-5 -0.173618,0.03767 -0.259208,0.08355 -0.0856,0.04587 -0.239869,0.09496 -0.342837,0.109072 -0.102969,0.01409 -0.196833,0.05074 -0.208578,0.08133 -0.01692,0.04399 -0.182518,0.0557 -0.792156,0.0557 H 8.831198 Z m 15.120286,-7.495126 c 0.01401,-0.02264 -0.0034,-0.04117 -0.03878,-0.04117 -0.03536,0 -0.06424,0.01854 -0.06424,0.04117 0,0.02264 0.01743,0.04117 0.03878,0.04117 0.02136,0 0.05023,-0.01854 0.06424,-0.04117 z M 6.153405,4.2185448 c 0.03716,-0.0968 0.03024,-0.223171 -0.01222,-0.223171 -0.02947,0 -0.127593,0.210621 -0.127593,0.273876 0,0.04663 0.118964,0.0034 0.139748,-0.05071 z M 9.771756,22.39673 C 9.723746,22.34574 9.618802,22.24845 9.538644,22.180489 9.458514,22.112499 9.392506,22.039382 9.392036,22.017942 9.391652,21.996502 9.341376,21.907126 9.280554,21.81934 9.171945,21.66261 9.169935,21.647918 9.169935,21.010032 c 0,-0.626465 0.04475,-0.909609 0.143865,-0.909609 0.0199,0 0.03648,-0.05099 0.03682,-0.113267 3.08e-4,-0.06227 0.0275,-0.159617 0.06039,-0.21625 0.03288,-0.05663 0.09861,-0.177111 0.146069,-0.267735 0.180562,-0.344747 0.238656,-0.434943 0.360106,-0.55917 0.149785,-0.153201 0.255861,-0.145103 0.310068,0.02375 0.02179,0.068 0.06483,0.152587 0.0956,0.188044 0.03076,0.03545 0.06826,0.128148 0.08337,0.205949 0.01512,0.07782 0.05954,0.182954 0.09871,0.233659 0.0392,0.05073 0.08423,0.178913 0.100144,0.284904 0.01589,0.105993 0.05971,0.239706 0.09742,0.297143 0.05595,0.08533 0.07106,0.239835 0.08226,0.843364 0.01256,0.67941 0.0068,0.747636 -0.06628,0.847141 -0.04399,0.05954 -0.09258,0.147846 -0.107969,0.196288 -0.01537,0.04844 -0.110243,0.163931 -0.210817,0.256646 -0.155492,0.143318 -0.209631,0.168551 -0.361706,0.168551 -0.132127,0 -0.201669,-0.02418 -0.266213,-0.09267 z m 9.98959,0.01037 c -0.02828,-0.04536 -0.07415,-0.08234 -0.101876,-0.08234 -0.02777,0 -0.07252,-0.04168 -0.0996,-0.09267 -0.02707,-0.05091 -0.08328,-0.116897 -0.125021,-0.146504 -0.04168,-0.02964 -0.07585,-0.08548 -0.07585,-0.124176 0,-0.03869 -0.03707,-0.139517 -0.08234,-0.224058 -0.06799,-0.126918 -0.08234,-0.232386 -0.08234,-0.605408 0,-0.354589 0.01768,-0.496644 0.08234,-0.660702 0.04527,-0.114951 0.08243,-0.268554 0.08251,-0.34134 8.5e-5,-0.07277 0.03605,-0.191232 0.07996,-0.263198 0.04391,-0.07201 0.09284,-0.201729 0.108797,-0.288329 0.01589,-0.0866 0.06124,-0.199012 0.100751,-0.249786 0.03947,-0.05082 0.08363,-0.155491 0.09809,-0.232694 0.03374,-0.17998 0.108532,-0.239912 0.278906,-0.223554 0.114019,0.01104 0.143951,0.03605 0.181425,0.151929 0.02468,0.07636 0.07569,0.156055 0.113268,0.17711 0.03767,0.02101 0.06841,0.06159 0.06841,0.09 0,0.02845 0.0463,0.114549 0.10297,0.191317 0.05663,0.07679 0.102969,0.179809 0.102969,0.228986 0,0.0492 0.03724,0.136724 0.08269,0.194562 0.04545,0.05783 0.09444,0.194699 0.108763,0.304174 0.01436,0.10947 0.05125,0.249086 0.0821,0.310264 0.07594,0.150776 0.07619,0.850087 3.08e-4,0.960835 -0.03058,0.04468 -0.06688,0.153082 -0.08063,0.240886 -0.01375,0.08781 -0.05313,0.189736 -0.0875,0.226535 -0.03435,0.03682 -0.120469,0.136416 -0.191359,0.221367 -0.0709,0.08499 -0.154133,0.154457 -0.18497,0.154457 -0.03084,0 -0.07594,0.03707 -0.100155,0.08234 -0.034,0.06347 -0.08625,0.08234 -0.227644,0.08234 -0.138946,0 -0.196058,-0.01999 -0.235001,-0.08234 z M 7.674539,20.623196 C 7.379215,20.419392 7.147811,19.993759 7.107662,19.580528 c -0.03297,-0.338896 0.02921,-0.820189 0.118581,-0.918987 0.03536,-0.03904 0.06423,-0.120536 0.06423,-0.181058 0,-0.06056 0.03527,-0.145265 0.07834,-0.188343 0.04305,-0.04313 0.09108,-0.118538 0.106678,-0.167706 0.03716,-0.117052 0.343417,-0.495293 0.647539,-0.799724 0.216088,-0.216301 0.252536,-0.237895 0.336805,-0.199498 0.146009,0.06654 0.232583,0.300577 0.258788,0.699669 0.01299,0.198117 0.0492,0.461434 0.08038,0.585122 0.07303,0.289772 0.07277,0.855306 -3.75e-4,1.081424 -0.03152,0.09708 -0.06679,0.242663 -0.07858,0.323537 -0.04229,0.291081 -0.435764,0.757801 -0.678145,0.804423 -0.07389,0.01418 -0.144479,0.04229 -0.156892,0.06235 -0.03212,0.05194 -0.06261,0.04348 -0.210339,-0.0585 z m 14.423485,0.05374 c -0.01082,-0.01759 -0.06987,-0.04459 -0.131095,-0.05988 -0.125056,-0.03134 -0.548451,-0.45026 -0.548451,-0.5426 0,-0.0328 -0.04168,-0.11618 -0.09267,-0.18514 -0.08981,-0.121537 -0.09252,-0.15292 -0.08754,-1.017777 0.0043,-0.807062 0.0135,-0.913196 0.09267,-1.110142 0.04819,-0.119775 0.08754,-0.287679 0.08754,-0.373133 0,-0.216258 0.07944,-0.314662 0.224665,-0.278231 0.118205,0.02972 0.623143,0.526258 0.66387,0.652894 0.01272,0.03963 0.03732,0.07201 0.05466,0.07201 0.04749,0 0.282246,0.377371 0.314407,0.505475 0.01555,0.06176 0.04399,0.112372 0.06329,0.112372 0.04433,0 0.103058,0.222076 0.163342,0.617846 0.05859,0.384751 -0.02938,0.987086 -0.165255,1.131744 -0.04579,0.04877 -0.08328,0.102782 -0.08328,0.120051 0,0.122287 -0.501922,0.442179 -0.556138,0.354452 z M 2.850674,19.279347 c -0.07457,-0.01887 -0.167229,-0.0621 -0.20594,-0.09626 -0.03869,-0.03417 -0.131889,-0.07517 -0.207043,-0.09112 -0.07517,-0.01589 -0.146376,-0.05442 -0.158267,-0.08542 -0.01187,-0.03091 -0.06158,-0.06885 -0.110482,-0.08414 -0.04886,-0.01529 -0.125944,-0.06295 -0.17126,-0.105916 C 1.606132,18.445086 1.397364,18.23467 1.260802,18.073773 0.86297397,17.605044 0.78279797,17.381636 0.95178497,17.21265 1.034985,17.12945 1.069588,17.12652 1.785874,17.14209 c 0.464047,0.01004 0.780127,0.03451 0.833952,0.06449 0.04767,0.02649 0.21449,0.06023 0.370698,0.07492 0.156216,0.01469 0.358177,0.06014 0.44879,0.100928 0.09062,0.04082 0.211092,0.08738 0.267735,0.1034 0.05663,0.01606 0.140037,0.06194 0.185353,0.102064 0.04527,0.04015 0.124082,0.08554 0.175052,0.101005 0.05099,0.01546 0.09267,0.04262 0.09267,0.06039 0,0.01777 0.05561,0.0905 0.123569,0.161617 0.06799,0.07106 0.123568,0.157267 0.123568,0.191453 0,0.03417 0.03707,0.09923 0.08234,0.144539 0.06228,0.06228 0.08234,0.137297 0.08234,0.307548 0,0.202823 -0.01444,0.239605 -0.145539,0.370699 -0.08005,0.08005 -0.157814,0.145539 -0.172831,0.145539 -0.01503,0 -0.100817,0.051 -0.190642,0.113192 -0.151715,0.105132 -0.1958,0.11377 -0.62005,0.121451 -0.251195,0.0043 -0.517725,-0.0068 -0.592279,-0.02597 z m 23.308393,-3.76e-4 c -0.07722,-0.01973 -0.156892,-0.06526 -0.177102,-0.101424 -0.02025,-0.03606 -0.0621,-0.0656 -0.09313,-0.0656 -0.08021,0 -0.384188,-0.302011 -0.432911,-0.43015 -0.03212,-0.08447 -0.02332,-0.140655 0.04082,-0.260372 0.04502,-0.08398 0.08183,-0.182654 0.08183,-0.219317 0,-0.03673 0.04169,-0.115232 0.09268,-0.174581 0.05099,-0.05928 0.135792,-0.163991 0.188488,-0.232549 0.0527,-0.06859 0.119324,-0.124655 0.148069,-0.124655 0.02878,0 0.0849,-0.03605 0.124713,-0.08004 0.03981,-0.04399 0.124313,-0.09144 0.187711,-0.105375 0.06338,-0.01393 0.185875,-0.06124 0.272167,-0.105298 0.08629,-0.04399 0.232344,-0.08005 0.324564,-0.08005 0.09221,0 0.269014,-0.02938 0.392882,-0.06526 0.151536,-0.04399 0.461041,-0.07149 0.94604,-0.08422 0.797435,-0.02092 0.890935,-6.07e-4 0.960246,0.208255 0.03289,0.09904 0.02614,0.132068 -0.03793,0.185345 -0.04288,0.0357 -0.100707,0.115822 -0.128532,0.17812 -0.02784,0.06228 -0.06953,0.113266 -0.09266,0.113266 -0.02314,0 -0.04211,0.02375 -0.04211,0.05288 0,0.13774 -0.827093,0.958641 -1.053337,1.045461 -0.04024,0.01546 -0.106932,0.06185 -0.148299,0.103278 -0.04134,0.04143 -0.109801,0.07526 -0.152057,0.07526 -0.04229,0 -0.127413,0.03981 -0.189249,0.08843 -0.09764,0.07679 -0.175539,0.09013 -0.592502,0.101413 -0.264043,0.0077 -0.54324,-0.0034 -0.620434,-0.0228 z M 5.735621,18.396541 c -0.07363,-0.07578 -0.133862,-0.165776 -0.133862,-0.19996 0,-0.03417 -0.04168,-0.115164 -0.09268,-0.179956 -0.0849,-0.107947 -0.09267,-0.161086 -0.09267,-0.633691 0,-0.488716 0.0068,-0.528889 0.122057,-0.763017 0.06713,-0.135922 0.136477,-0.253255 0.154098,-0.260738 0.01759,-0.0077 0.06116,-0.07508 0.09683,-0.150143 0.09056,-0.190856 0.759636,-0.804206 0.87726,-0.804206 0.01896,0 0.06706,-0.03603 0.106887,-0.08006 0.03981,-0.04401 0.130147,-0.09273 0.200687,-0.108212 0.07056,-0.01548 0.159778,-0.04786 0.198328,-0.0719 0.05125,-0.03201 0.08757,-0.02927 0.135214,0.01026 0.08575,0.07117 0.0891,0.822784 0.0052,1.178278 -0.03229,0.136818 -0.07099,0.396308 -0.086,0.576657 -0.01503,0.180348 -0.05954,0.392779 -0.0989,0.472067 -0.03938,0.07927 -0.08405,0.194656 -0.09927,0.256364 -0.05663,0.229421 -0.407857,0.661786 -0.582721,0.717344 -0.04527,0.01435 -0.126577,0.06073 -0.180613,0.102892 -0.159788,0.124783 -0.372664,0.09989 -0.529898,-0.06202 z m 18.082139,0.0962 c -0.05099,-0.02042 -0.09267,-0.05408 -0.09267,-0.07465 0,-0.02058 -0.0539,-0.04819 -0.119862,-0.06133 -0.07996,-0.01606 -0.1828,-0.101237 -0.308922,-0.256065 -0.103985,-0.127645 -0.189062,-0.252094 -0.189062,-0.276558 0,-0.02443 -0.03008,-0.07773 -0.06679,-0.118308 -0.03673,-0.04057 -0.08328,-0.162546 -0.103422,-0.270971 -0.02016,-0.108421 -0.06765,-0.262008 -0.105651,-0.341295 -0.05552,-0.115891 -0.07252,-0.309735 -0.08666,-0.988546 -0.01649,-0.792014 -0.01274,-0.848786 0.06124,-0.915381 0.07483,-0.06731 0.0876,-0.06666 0.249369,0.01341 0.09379,0.0464 0.192444,0.110778 0.21924,0.143079 0.02683,0.03232 0.07268,0.0587 0.101976,0.0587 0.05253,0 0.15579,0.07699 0.400486,0.298629 0.06876,0.06228 0.140841,0.113269 0.160137,0.113269 0.0193,0 0.03511,0.01845 0.03511,0.04109 0,0.02264 0.07594,0.119349 0.168672,0.214944 0.221701,0.228447 0.360004,0.484376 0.451473,0.83542 0.08725,0.334899 0.0952,0.623014 0.02222,0.805472 -0.03613,0.09028 -0.06569,0.210297 -0.06569,0.26669 0,0.05638 -0.03707,0.134281 -0.08234,0.173088 -0.04527,0.03878 -0.08234,0.09505 -0.08234,0.125031 0,0.02998 -0.04553,0.1 -0.101105,0.15561 -0.106578,0.106568 -0.288824,0.129532 -0.465251,0.05868 z M 1.966793,16.224426 c -0.06228,-0.02409 -0.113267,-0.05843 -0.113267,-0.07628 0,-0.01793 -0.07355,-0.04426 -0.16346,-0.05868 -0.102495,-0.0164 -0.179845,-0.0568 -0.207393,-0.108234 -0.02418,-0.04509 -0.06774,-0.08209 -0.09684,-0.08209 -0.02912,0 -0.09241,-0.04168 -0.140687,-0.09267 -0.04826,-0.05091 -0.11187,-0.116046 -0.141297,-0.144601 -0.20927103,-0.203054 -0.40361903,-0.421325 -0.40361903,-0.453307 0,-0.02097 -0.03605,-0.07066 -0.08004,-0.110499 -0.04399,-0.03982 -0.09149,-0.124575 -0.105497,-0.188293 -0.014005,-0.06375 -0.051683,-0.125916 -0.083711,-0.138207 -0.032028,-0.01232 -0.079098,-0.105265 -0.104636,-0.20659 -0.025538,-0.101337 -0.070986,-0.193681 -0.1011043,-0.205229 -0.030063,-0.01159 -0.067565,-0.106964 -0.083369,-0.212021 -0.015716,-0.105066 -0.054156,-0.200802 -0.085245,-0.212759 -0.035956,-0.01378 -0.0566280047147,-0.08668 -0.0566280047147,-0.199395 0,-0.165099 0.009050004715,-0.179653 0.12736980471467,-0.205649 0.1553118,-0.03415 0.4605185,0.0078 0.6552275,0.0902 0.07927,0.03346 0.24402903,0.07753 0.36609403,0.09783 0.122066,0.02031 0.251811,0.06287 0.288329,0.09468 0.03656,0.03182 0.139543,0.07095 0.228961,0.08701 0.08941,0.01609 0.207751,0.06476 0.262985,0.108178 0.05527,0.04347 0.131392,0.079 0.169243,0.079 0.03784,0 0.131624,0.04633 0.208391,0.102969 0.07679,0.05664 0.159148,0.103223 0.183056,0.103544 0.06884,0.0012 0.532871,0.456294 0.64994,0.637862 0.127549,0.197858 0.191504,0.713629 0.116615,0.94054 -0.04203,0.127404 -0.178067,0.233359 -0.29957,0.233359 -0.02545,0 -0.08072,0.03118 -0.1228,0.06919 -0.09251,0.08371 -0.690693,0.118273 -0.867051,0.05006 z m 25.382957,0.0182 c -0.034,-0.01357 -0.08959,-0.04801 -0.123568,-0.07654 -0.034,-0.02845 -0.119691,-0.06415 -0.190471,-0.0791 -0.07081,-0.01503 -0.172728,-0.07431 -0.226543,-0.131795 -0.08571,-0.09151 -0.09685,-0.140023 -0.08986,-0.390876 0.006,-0.206587 0.03161,-0.324567 0.09267,-0.423407 0.04655,-0.07537 0.08525,-0.162632 0.08589,-0.193939 0.0034,-0.147505 0.856211,-0.859595 1.030734,-0.860388 0.0328,-1.63e-4 0.1149,-0.03676 0.18251,-0.08132 0.06757,-0.04456 0.201993,-0.09288 0.298621,-0.107373 0.09662,-0.01445 0.175693,-0.04054 0.175693,-0.05785 0,-0.04365 0.193537,-0.112627 0.39372,-0.140361 0.09194,-0.01274 0.223606,-0.05128 0.292573,-0.08572 0.185594,-0.09259 0.613448,-0.129038 0.697348,-0.05939 0.08879,0.07368 0.05331,0.40174 -0.06399,0.591503 -0.04622,0.07473 -0.08396,0.175404 -0.08396,0.223696 0,0.04835 -0.0352,0.122997 -0.07816,0.166003 -0.04296,0.04299 -0.09108,0.136928 -0.106854,0.208728 -0.0158,0.07184 -0.05399,0.140269 -0.08499,0.152164 -0.031,0.01195 -0.06833,0.0595 -0.08303,0.105806 -0.09265,0.291901 -0.839153,1.019964 -1.112635,1.085148 -0.06603,0.01572 -0.154432,0.05859 -0.196434,0.09516 -0.05459,0.04767 -0.172104,0.0691 -0.411896,0.0756 -0.184534,0.0052 -0.363319,-0.0025 -0.3973,-0.01563 z M 4.626812,15.94865 c -0.07183,-0.06151 -0.143796,-0.167338 -0.159983,-0.235171 -0.01624,-0.06783 -0.05936,-0.157711 -0.09598,-0.199732 -0.09727,-0.111675 -0.09727,-1.053571 0,-1.165252 0.03664,-0.04207 0.07953,-0.13077 0.09536,-0.197206 0.0158,-0.06644 0.07465,-0.177648 0.130805,-0.24714 0.22715,-0.28134 0.492765,-0.555975 0.539045,-0.557359 0.02707,-6.09e-4 0.07338,-0.03482 0.10298,-0.07563 0.02956,-0.04074 0.114063,-0.09863 0.187686,-0.128563 0.07363,-0.02993 0.133872,-0.06929 0.133872,-0.08742 0,-0.01811 0.06953,-0.05566 0.154456,-0.08337 0.0849,-0.02775 0.198663,-0.08475 0.252691,-0.126764 0.09806,-0.07626 0.269434,-0.09869 0.392678,-0.0514 0.08563,0.0328 0.08852,0.424934 0.0052,0.678181 -0.03305,0.10032 -0.07876,0.356039 -0.101435,0.56828 -0.02272,0.21224 -0.06688,0.425395 -0.0981,0.473676 -0.03127,0.04823 -0.06884,0.177355 -0.08362,0.286829 -0.0147,0.109481 -0.06398,0.246357 -0.109481,0.304179 -0.04545,0.05785 -0.08268,0.12902 -0.08268,0.158211 0,0.0292 -0.04313,0.105464 -0.09596,0.169497 -0.05279,0.06404 -0.107804,0.148869 -0.12227,0.188512 -0.01452,0.03963 -0.05408,0.0721 -0.08794,0.0721 -0.03391,0 -0.08132,0.03682 -0.105464,0.08192 -0.02409,0.04502 -0.09426,0.09422 -0.15591,0.10926 -0.06167,0.01503 -0.156285,0.06159 -0.210304,0.103455 -0.140654,0.108952 -0.330424,0.09368 -0.485419,-0.03903 z m 20.348464,0.07423 c -0.04868,-0.01956 -0.100718,-0.05552 -0.115694,-0.07978 -0.01494,-0.02418 -0.06056,-0.04408 -0.101314,-0.04408 -0.08218,0 -0.49772,-0.395039 -0.49772,-0.473182 0,-0.02719 -0.03605,-0.08211 -0.08005,-0.121959 -0.04399,-0.03982 -0.09234,-0.128404 -0.107373,-0.196816 -0.01503,-0.06841 -0.0604,-0.182336 -0.10074,-0.253162 -0.0404,-0.0708 -0.08552,-0.243328 -0.100309,-0.38334 -0.01478,-0.14 -0.0545,-0.309923 -0.08827,-0.377598 -0.08013,-0.160588 -0.153125,-1.142565 -0.09327,-1.25441 0.03511,-0.06559 0.07269,-0.07567 0.212201,-0.057 0.09325,0.01249 0.190778,0.05176 0.216729,0.08725 0.02597,0.03543 0.07499,0.06454 0.108963,0.06454 0.034,0 0.130078,0.04633 0.213534,0.102969 0.08346,0.05664 0.166748,0.102981 0.185081,0.102981 0.01837,0 0.08209,0.04171 0.14167,0.09267 0.05954,0.05098 0.187394,0.156969 0.28404,0.235561 0.202855,0.164949 0.44346,0.468446 0.44346,0.559391 0,0.03427 0.02759,0.0729 0.06133,0.08585 0.209339,0.08032 0.226493,1.382167 0.02109,1.600804 -0.04536,0.04826 -0.08243,0.106225 -0.08243,0.128805 0,0.02256 -0.03776,0.08167 -0.08398,0.131206 -0.08831,0.09479 -0.272595,0.115566 -0.43697,0.04929 z M 1.562064,13.150038 C 1.264048,12.999252 0.70022197,12.423151 0.70022197,12.269445 c 0,-0.04085 -0.03494,-0.107406 -0.07756,-0.147938 -0.04271,-0.04054 -0.09102,-0.138561 -0.107418,-0.217849 -0.0164,-0.07929 -0.062532,-0.199769 -0.1025386,-0.267728 -0.039974,-0.06796 -0.084737,-0.232098 -0.099394,-0.36474 -0.014689,-0.132646 -0.046982,-0.279077 -0.071748,-0.325401 -0.075511,-0.14108 -0.1269096,-0.678371 -0.074319,-0.776659 0.040316,-0.07526 0.070125,-0.08265 0.2380493,-0.05893 0.1055963,0.01492 0.2386903,0.0605 0.2957593,0.101314 0.05706,0.04081 0.149751,0.08861 0.205949,0.106247 0.05621,0.01765 0.14638603,0.06657 0.20040503,0.108764 0.05399,0.0422 0.120664,0.07671 0.148084,0.07671 0.02743,0 0.08337,0.03706 0.12439,0.08237 0.041,0.0453 0.09806,0.08238 0.126788,0.08238 0.02871,0 0.107318,0.04634 0.174626,0.10298 0.06731,0.05663 0.139525,0.10297 0.160489,0.10297 0.02101,0 0.07773,0.04172 0.126207,0.09267 0.04844,0.05098 0.167648,0.156977 0.264864,0.235564 0.176548,0.142715 0.428555,0.445845 0.476049,0.572627 0.01384,0.03688 0.0516,0.08693 0.08389,0.111194 0.07661,0.05749 0.129532,0.594543 0.09316,0.945931 -0.04006,0.386736 -0.07158,0.407837 -0.632189,0.42236 -0.437105,0.01127 -0.474399,0.0061 -0.691692,-0.104239 z m 25.680595,-0.02714 c -0.139039,-0.139036 -0.140046,-0.142773 -0.140046,-0.520305 0,-0.30032 0.0164,-0.407251 0.07791,-0.508682 0.04288,-0.07063 0.09071,-0.188824 0.106324,-0.262643 0.01563,-0.07381 0.06398,-0.153242 0.107417,-0.1765 0.04348,-0.02329 0.07901,-0.06139 0.07901,-0.08473 0,-0.05493 0.434663,-0.490139 0.489537,-0.490139 0.02298,0 0.05758,-0.02807 0.0767,-0.06234 0.03981,-0.07112 0.535604,-0.399914 0.751802,-0.498571 0.07927,-0.03619 0.158175,-0.09013 0.175292,-0.119912 0.01708,-0.02978 0.09127,-0.06686 0.164759,-0.0824 0.07346,-0.01552 0.1709,-0.0624 0.216464,-0.104129 0.11952,-0.109458 0.400143,-0.147437 0.469762,-0.06356 0.07858,0.09471 -1.54e-4,1.06835 -0.09498,1.17305 -0.03648,0.0403 -0.06637,0.1293 -0.06637,0.197766 0,0.06847 -0.0463,0.211638 -0.10297,0.318154 -0.05663,0.106523 -0.103256,0.215856 -0.103609,0.242981 -3.08e-4,0.02714 -0.06603,0.141981 -0.145968,0.255253 -0.07996,0.113265 -0.176957,0.253247 -0.215609,0.311064 -0.08675,0.129732 -0.364318,0.374853 -0.502768,0.443985 -0.05663,0.02823 -0.149306,0.07821 -0.205948,0.110947 -0.07234,0.04182 -0.235983,0.05975 -0.549877,0.06018 l -0.446903,6.1e-4 z m -23.357381,-0.0762 c -0.06116,-0.09627 -0.125141,-0.25846 -0.142259,-0.360404 -0.04365,-0.260076 0.0034,-0.694171 0.09376,-0.864369 0.04194,-0.07895 0.0762,-0.176105 0.0762,-0.215892 0,-0.03982 0.03707,-0.0955 0.08234,-0.12379 0.04527,-0.02829 0.08234,-0.0718 0.08234,-0.09667 0,-0.05877 0.475323,-0.481086 0.589854,-0.524079 0.04843,-0.01817 0.116257,-0.05782 0.150707,-0.08809 0.03443,-0.03027 0.127507,-0.06843 0.206794,-0.08479 0.07927,-0.01635 0.175557,-0.05743 0.213928,-0.09125 0.03836,-0.0338 0.20923,-0.07712 0.379694,-0.09625 0.170465,-0.01913 0.346379,-0.05426 0.39091,-0.07809 0.0445,-0.02383 0.138696,-0.04334 0.209237,-0.04334 0.105287,0 0.138194,0.0236 0.183645,0.131707 0.0574,0.136469 0.04724,0.215696 -0.04117,0.321374 -0.02845,0.03399 -0.0721,0.138402 -0.09701,0.232042 -0.02494,0.09364 -0.07295,0.193217 -0.1068,0.221288 -0.03383,0.02811 -0.06176,0.08118 -0.0621,0.11807 -3.17e-4,0.03688 -0.0275,0.113375 -0.06039,0.170008 -0.03289,0.05664 -0.09861,0.177117 -0.146069,0.267733 -0.164059,0.313216 -0.231499,0.423843 -0.300407,0.492753 -0.0381,0.03804 -0.06919,0.08754 -0.06919,0.109989 0,0.06444 -0.575051,0.612347 -0.642678,0.612347 -0.03348,0 -0.133486,0.03707 -0.222307,0.08237 -0.108598,0.05536 -0.242756,0.08238 -0.409727,0.08238 -0.247181,0 -0.248745,-6.1e-4 -0.359398,-0.175058 z m 21.54804,0.119131 c -0.04468,-0.03078 -0.152059,-0.07895 -0.238597,-0.107119 -0.08654,-0.02818 -0.167024,-0.07643 -0.178862,-0.107263 -0.01188,-0.03085 -0.05595,-0.06702 -0.09798,-0.08033 -0.04203,-0.0133 -0.08793,-0.06041 -0.101944,-0.104537 -0.014,-0.04414 -0.05203,-0.08028 -0.08447,-0.08028 -0.03246,0 -0.05902,-0.01792 -0.05902,-0.03976 0,-0.02188 -0.05561,-0.09666 -0.123568,-0.166174 -0.068,-0.06953 -0.123569,-0.145084 -0.123569,-0.167898 0,-0.02286 -0.03707,-0.08127 -0.08234,-0.129916 -0.04527,-0.04866 -0.08234,-0.119131 -0.08234,-0.15665 0,-0.03749 -0.03605,-0.100828 -0.08005,-0.140671 -0.04399,-0.03982 -0.09224,-0.128008 -0.107163,-0.195926 -0.01494,-0.06792 -0.06227,-0.158675 -0.10531,-0.201676 -0.04296,-0.04299 -0.07817,-0.122026 -0.07817,-0.175611 0,-0.05359 -0.03681,-0.144243 -0.08183,-0.20148 -0.04502,-0.05723 -0.102307,-0.199431 -0.127311,-0.315996 -0.03828,-0.1785 -0.03502,-0.227934 0.02101,-0.313382 0.07704,-0.11758 0.134554,-0.123068 0.410932,-0.03922 0.111209,0.03373 0.267545,0.06134 0.347405,0.06134 0.07987,0 0.220572,0.03525 0.312673,0.07829 0.09211,0.04306 0.236718,0.100011 0.321352,0.126574 0.08465,0.02656 0.164683,0.06574 0.177871,0.08709 0.01316,0.02135 0.08294,0.06368 0.15503,0.09408 0.154398,0.06513 0.591656,0.49514 0.62971,0.619276 0.01452,0.04743 0.05851,0.116851 0.09772,0.154316 0.08872,0.08477 0.141977,0.648995 0.10074,1.067408 -0.02468,0.25003 -0.04408,0.300535 -0.149631,0.389377 -0.09807,0.08251 -0.166306,0.102087 -0.356126,0.102087 -0.130429,0 -0.270928,-0.02481 -0.316057,-0.0559 z M 2.26381,10.277426 C 2.115674,10.225556 1.924323,10.1355 1.838578,10.077313 1.670163,9.9630228 1.460139,9.7203498 1.419888,9.5935268 c -0.01375,-0.04333 -0.04152,-0.07877 -0.06176,-0.07877 -0.02025,0 -0.0592,-0.07878 -0.08671,-0.175054 -0.0275,-0.09627 -0.07663,-0.206577 -0.109172,-0.245105 -0.03255,-0.03853 -0.07508,-0.19608 -0.09447,-0.350111 -0.01939,-0.154031 -0.06364,-0.381409 -0.09842,-0.505277 -0.04228,-0.150666 -0.06185,-0.389281 -0.05902,-0.720814 0.0051,-0.63375 0.02264,-0.697805 0.19346903,-0.71447 0.07295,-0.0071 0.159113,0.01141 0.191573,0.04119 0.03246,0.02978 0.126525,0.100453 0.209042,0.157092 0.08251,0.05663 0.203077,0.149313 0.267929,0.205948 0.06483,0.05663 0.150776,0.130776 0.190957,0.164758 0.357297,0.302195 0.487316,0.42757 0.688232,0.663679 0.127474,0.149804 0.231781,0.290581 0.231781,0.312832 0,0.02227 0.03673,0.07367 0.08158,0.114278 0.04484,0.0406 0.09326,0.136152 0.107549,0.21233 0.01427,0.07618 0.04066,0.138509 0.0586,0.138509 0.07363,0 0.122843,0.285157 0.120118,0.696068 -0.0034,0.4965182 -0.0094,0.5195832 -0.19375,0.7214102 C 2.937425,10.363446 2.901079,10.379295 2.727898,10.37574 2.620834,10.37354 2.412047,10.3293 2.263911,10.27742 Z m 24.785645,0.02914 c -0.06321,-0.03905 -0.125926,-0.117321 -0.139338,-0.173955 -0.01341,-0.05664 -0.06124,-0.1856222 -0.106236,-0.2866342 -0.09572,-0.214747 -0.08311,-0.599666 0.0264,-0.804887 0.03631,-0.06796 0.06603,-0.162773 0.06621,-0.210689 1.19e-4,-0.04791 0.0334,-0.131328 0.07398,-0.185351 0.04058,-0.05401 0.09542,-0.148473 0.121947,-0.209881 0.02649,-0.06141 0.0814,-0.149128 0.121929,-0.19493 0.139961,-0.158151 0.917501,-0.929382 1.030896,-1.022522 0.264872,-0.217571 0.365847,-0.288167 0.449731,-0.314406 0.04886,-0.01528 0.09927,-0.05489 0.111987,-0.08801 0.03426,-0.08929 0.180732,-0.07295 0.233727,0.0261 0.03118,0.05835 0.04169,0.362571 0.03238,0.938978 -0.01153,0.709777 -0.02536,0.870187 -0.08234,0.957158 -0.03767,0.05746 -0.08167,0.191899 -0.09765,0.298746 -0.01597,0.106843 -0.05544,0.220596 -0.08765,0.252782 -0.0322,0.03217 -0.0797,0.119282 -0.105585,0.193554 -0.07243,0.207896 -0.621144,0.7233132 -0.807036,0.7581242 -0.08337,0.01563 -0.211244,0.05328 -0.284143,0.08371 -0.18063,0.07539 -0.420464,0.06773 -0.55906,-0.01786 z M 3.442647,7.4892868 c -0.04348,-0.02523 -0.154075,-0.06274 -0.245781,-0.08335 -0.09171,-0.02059 -0.19516,-0.06348 -0.229884,-0.0953 -0.03469,-0.03178 -0.1419,-0.12564 -0.238186,-0.208519 -0.09627,-0.08288 -0.175053,-0.167069 -0.175053,-0.18709 0,-0.02003 -0.03707,-0.07347 -0.08234,-0.118772 -0.04536,-0.04532 -0.08234,-0.110934 -0.08234,-0.145833 0,-0.0349 -0.03648,-0.113672 -0.08106,-0.175053 -0.132949,-0.183043 -0.249223,-1.352154 -0.170857,-1.717989 0.02426,-0.113271 0.05552,-0.368502 0.06945,-0.56718 0.02836,-0.405283 0.07115,-0.479186 0.261061,-0.451309 0.09614,0.01412 0.22334,0.120229 0.522807,0.436188 0.217668,0.229649 0.416997,0.463 0.442965,0.518558 0.02597,0.05556 0.0902,0.148234 0.142745,0.205947 0.183997,0.202062 0.203166,0.229274 0.233482,0.331473 0.01683,0.05664 0.06347,0.140044 0.103753,0.185353 0.04024,0.04531 0.08651,0.147252 0.102815,0.226541 0.01632,0.07929 0.05997,0.178532 0.09712,0.220541 0.09998,0.113124 0.09885,1.053926 -0.0018,1.165214 -0.03793,0.04205 -0.0814,0.126616 -0.09668,0.187906 -0.03365,0.13468 -0.266178,0.32153 -0.39805,0.3198 -0.05246,-7.32e-4 -0.130993,-0.02189 -0.174472,-0.04714 z m 22.656335,-0.143723 c -0.08234,-0.105663 -0.149674,-0.236006 -0.149674,-0.28965 0,-0.05365 -0.02784,-0.16408 -0.06176,-0.245408 -0.07243,-0.173435 -0.08029,-0.455017 -0.01716,-0.619103 0.02452,-0.06377 0.06108,-0.215823 0.08115,-0.337889 0.02007,-0.122063 0.06347,-0.25181 0.09638,-0.288324 0.03288,-0.03651 0.07286,-0.118664 0.08881,-0.182555 0.01589,-0.06389 0.06372,-0.137856 0.106181,-0.164367 0.04246,-0.0265 0.07722,-0.07986 0.07722,-0.118553 0,-0.03869 0.04168,-0.118766 0.09268,-0.17794 0.051,-0.05918 0.139014,-0.163944 0.195647,-0.232819 0.05663,-0.06888 0.18175,-0.207855 0.278027,-0.308847 0.09628,-0.100994 0.175462,-0.196432 0.175949,-0.21209 3.75e-4,-0.01567 0.06783,-0.08408 0.149606,-0.152039 0.08183,-0.06796 0.186669,-0.165272 0.233077,-0.216243 0.136614,-0.15007 0.316646,-0.09774 0.316646,0.09204 0,0.04722 0.03707,0.191338 0.08234,0.320249 0.07072,0.201167 0.08234,0.339969 0.08234,0.979481 0,0.640762 -0.0111,0.772124 -0.07919,0.938087 -0.04356,0.106148 -0.09093,0.263469 -0.105243,0.349614 -0.01436,0.08614 -0.05116,0.16626 -0.08183,0.178034 -0.03067,0.01177 -0.06679,0.06511 -0.08013,0.118542 -0.05246,0.209076 -0.566952,0.636136 -0.768075,0.637567 -0.05801,3.79e-4 -0.141378,0.02797 -0.185353,0.06122 -0.04399,0.03327 -0.146983,0.06106 -0.228902,0.06178 -0.129121,0.0012 -0.168875,-0.02428 -0.298629,-0.190797 z M 4.633809,4.7418568 C 4.387815,4.6585368 3.914629,4.2597808 3.913433,4.1347898 3.913116,4.1095298 3.874573,4.0400098 3.827593,3.9802868 3.72129,3.8451538 3.607182,3.0643858 3.64017,2.6979058 c 0.07372,-0.819339 0.111006,-1.056121 0.189173,-1.20196 0.04604,-0.08584 0.08363,-0.197176 0.08363,-0.247419 0,-0.137685 0.08021,-0.28610905 0.184995,-0.34216805 0.09544,-0.05108 0.268091,-0.02409 0.268091,0.04189 0,0.0201 0.09267,0.16050905 0.205949,0.31203905 0.113268,0.151531 0.20594,0.296202 0.20594,0.321491 0,0.0253 0.03477,0.06766 0.07722,0.09418 0.04246,0.02651 0.08926,0.09631 0.104029,0.155118 0.01477,0.05879 0.06347,0.143513 0.108156,0.188246 0.04475,0.04473 0.08132,0.110844 0.08132,0.146915 0,0.03608 0.03554,0.110759 0.07893,0.165971 0.04348,0.05522 0.0914,0.173981 0.1066,0.26393 0.0152,0.08995 0.04313,0.163544 0.06203,0.163544 0.07841,0 0.12602,0.310372 0.127215,0.829254 8.54e-4,0.533243 -0.03853,0.777133 -0.126626,0.777133 -0.02323,0 -0.0422,0.02716 -0.0422,0.06035 0,0.0332 -0.05749,0.125869 -0.127832,0.205946 -0.113491,0.129247 -0.149324,0.145134 -0.319217,0.14149 -0.105265,-0.0022 -0.228457,-0.01667 -0.273764,-0.03199 z m 20.254875,0.0088 c -0.02828,-0.01142 -0.05151,-0.04369 -0.05151,-0.07169 0,-0.02801 -0.04639,-0.09121 -0.10298,-0.140456 -0.05663,-0.04924 -0.103091,-0.131362 -0.103246,-0.182485 -1.44e-4,-0.05113 -0.03707,-0.148553 -0.08209,-0.216516 -0.119401,-0.180293 -0.119401,-0.879496 0,-1.102277 0.04527,-0.08453 0.08234,-0.206873 0.08234,-0.271862 0,-0.06499 0.03724,-0.165498 0.08277,-0.223351 0.04553,-0.05785 0.09396,-0.161348 0.107693,-0.229991 0.01375,-0.06864 0.05988,-0.156426 0.102617,-0.195077 0.04271,-0.03864 0.07765,-0.102197 0.07765,-0.141225 0,-0.03902 0.03067,-0.09639 0.06817,-0.127482 0.0375,-0.03109 0.0939,-0.112134 0.125364,-0.180097 0.06347,-0.13702 0.209894,-0.347526 0.314832,-0.452461 0.03759,-0.03756 0.06826,-0.08298 0.06826,-0.100928 0,-0.07179 0.22311,-0.24981105 0.313084,-0.24981105 0.103102,0 0.181185,0.10606 0.181185,0.24609605 0,0.04771 0.03527,0.136977 0.07841,0.19836 0.04313,0.06138 0.08995,0.207833 0.104073,0.325452 0.01409,0.117616 0.05639,0.284433 0.09392,0.370704 0.05442,0.125025 0.06834,0.294772 0.06859,0.83648 3.15e-4,0.622593 -0.0077,0.693316 -0.08995,0.842794 -0.04963,0.08975 -0.09025,0.204014 -0.09025,0.253934 0,0.0892 -0.05116,0.16232 -0.320523,0.457969 -0.225331,0.247319 -0.504297,0.382504 -0.779967,0.377952 -0.108344,-0.0018 -0.220145,-0.01259 -0.248461,-0.02404 z"
     id="path1720"
     inkscape:export-filename="..\terminal\img\Logo.png"
     inkscape:export-xdpi="500"
     inkscape:export-ydpi="500" /></svg>
